<?xml version="1.0" encoding="UTF-8"?>
<!-- Generator: visioncortex VTracer 0.6.12 -->
<svg version="1.1" xmlns="http://www.w3.org/2000/svg" width="1536" height="1536">
<path d="M0 0 C506.88 0 1013.76 0 1536 0 C1536 506.88 1536 1013.76 1536 1536 C1029.12 1536 522.24 1536 0 1536 C0 1029.12 0 522.24 0 0 Z " fill="#000000" transform="translate(0,0)"/>
<path d="M0 0 C1.25 0 2.5 0 3.78 0 C83.56 0.08 163.51 3.65 362.5 26.19 C363.53 26.34 364.57 26.5 365.63 26.66 C416.03 34.3 465.8 45.1 514.5 60.19 C515.21 60.41 515.92 60.63 516.65 60.85 C520.8 62.13 524.94 63.45 529.07 64.81 C530.96 65.42 532.85 66.02 534.74 66.61 C535.87 66.99 537 67.37 538.16 67.77 C539.14 68.09 540.13 68.41 541.15 68.75 C543.5 70.19 543.5 70.19 544.88 73.14 C545.66 76.99 544.94 78.87 543.38 82.44 C542.94 83.47 542.5 84.51 542.05 85.58 C540.34 88.45 539.57 89.05 536.5 90.19 C529.73 89.8 522.85 86.7 516.5 84.5 C503.96 80.24 491.29 76.62 478.5 73.19 C477.98 73.05 477.98 73.05 475.37 72.33 C387.72 48.47 295.84 36.92 192.52 28.42 C189.64 28.2 186.77 27.97 183.9 27.74 C102.36 21.36 20.23 19.9 -61.5 22.19 C-62.6 22.22 -63.71 22.25 -64.85 22.28 C-115.82 23.7 -166.77 27.01 -217.5 32.19 C-218.01 32.24 -218.01 32.24 -220.56 32.5 C-281.98 38.73 -343.17 47.41 -403.46 60.74 C-405.37 61.16 -407.28 61.58 -409.19 62 C-436.2 67.94 -462.66 75.36 -488.98 83.82 C-490.48 84.3 -491.99 84.78 -493.49 85.26 C-496.56 86.23 -499.61 87.23 -502.65 88.31 C-508.76 90.43 -508.76 90.43 -512.48 89.21 C-514.84 86.84 -515.79 84.97 -516.88 81.81 C-517.21 80.88 -517.55 79.94 -517.9 78.98 C-518.57 75.86 -518.66 74.16 -517.5 71.19 C-513.99 68.75 -510.47 67.36 -506.43 66.06 C-505.22 65.67 -504.01 65.28 -502.77 64.88 C-501.45 64.46 -500.13 64.04 -498.81 63.62 C-498.14 63.41 -497.46 63.19 -496.77 62.97 C-472.58 55.26 -448.25 47.92 -423.5 42.19 C-422.11 41.86 -420.73 41.54 -419.34 41.21 C-389.62 34.24 -359.65 28.94 -329.5 24.19 C-328.48 24.03 -327.46 23.87 -326.4 23.7 C-254.4 12.4 -181.76 6.42 -109 2.94 C-108.13 2.9 -107.25 2.85 -106.36 2.81 C-70.92 1.11 -35.48 -0.03 0 0 Z " fill="#B98F22" transform="translate(754.5,965.8125)"/>
<path d="M0 0 C16.35 14.4 15.54 36.75 16.87 56.84 C17.48 68.11 16.77 76.89 10.47 86.56 C9.16 88.59 8.06 90.61 7.03 92.79 C8.06 93.53 9.09 94.27 10.16 95.04 C22.05 105.29 22.29 122.37 23.66 136.85 C23.72 137.53 23.79 138.21 23.85 138.92 C27.25 175.21 27.25 175.21 16.72 189.76 C2.96 206.29 -17.98 206.87 -37.9 209.21 C-40.76 209.54 -43.61 209.89 -46.47 210.25 C-48.3 210.46 -50.12 210.68 -51.95 210.9 C-52.8 211 -53.65 211.11 -54.52 211.22 C-54.92 211.26 -54.92 211.26 -56.91 211.49 C-57.6 211.57 -58.29 211.66 -59 211.74 C-61.16 211.79 -62.91 211.4 -64.97 210.79 C-67.14 191.06 -69.16 171.32 -70.84 151.54 C-70.92 150.61 -71 149.68 -71.08 148.72 C-71.16 147.77 -71.25 146.82 -71.33 145.85 C-72.74 129.36 -74.21 112.89 -75.71 96.41 C-75.91 94.3 -76.1 92.18 -76.29 90.07 C-77.66 74.98 -79.05 59.89 -80.46 44.81 C-80.7 42.3 -80.94 39.79 -81.17 37.28 C-81.61 32.6 -82.05 27.93 -82.5 23.25 C-82.69 21.15 -82.89 19.06 -83.09 16.96 C-83.18 16.03 -83.27 15.09 -83.36 14.13 C-83.81 9.33 -84.16 4.61 -83.97 -0.21 C-82.36 -1.82 -80.49 -1.61 -78.27 -1.88 C-77.27 -2 -76.27 -2.12 -75.24 -2.24 C-74.14 -2.37 -73.05 -2.49 -71.92 -2.62 C-71.36 -2.69 -71.36 -2.69 -68.51 -3.02 C-66.12 -3.3 -63.73 -3.58 -61.34 -3.85 C-57.71 -4.27 -54.08 -4.7 -50.46 -5.13 C-48.13 -5.4 -45.81 -5.67 -43.48 -5.93 C-42.41 -6.06 -41.34 -6.19 -40.23 -6.32 C-26.24 -7.9 -11.9 -8.75 0 0 Z " fill="#000000" transform="translate(592.96875,667.2109375)"/>
<path d="M0 0 C13.15 11.17 14.5 27.76 17.1 43.79 C17.18 44.25 17.18 44.25 17.57 46.61 C18.01 49.29 18.43 51.98 18.85 54.66 C18.92 55.06 18.92 55.06 19.24 57.09 C20.92 68.28 20.52 79.19 13.98 88.85 C13.72 89.19 13.72 89.19 12.41 90.95 C11.1 92.79 11.1 92.79 10.1 95.79 C10.78 95.95 11.46 96.12 12.16 96.29 C19.57 100.07 23.35 107.23 26.1 114.79 C27.3 119.45 28.18 124.15 29.05 128.88 C29.3 130.24 29.56 131.61 29.82 132.97 C30.36 135.81 30.89 138.66 31.42 141.5 C32.09 145.1 32.77 148.7 33.45 152.29 C33.99 155.11 34.51 157.92 35.04 160.73 C35.41 162.69 35.78 164.64 36.15 166.6 C37.81 175.63 39.05 184.67 40.1 193.79 C35.76 194.79 31.42 195.78 27.08 196.78 C25.6 197.11 24.12 197.45 22.65 197.79 C20.52 198.29 18.4 198.77 16.27 199.25 C15 199.55 13.72 199.84 12.4 200.14 C9.1 200.79 9.1 200.79 5.1 200.79 C2.97 192.69 1.26 184.6 -0.15 176.35 C-0.58 173.91 -1.01 171.47 -1.45 169.04 C-2.22 164.68 -2.98 160.32 -3.73 155.96 C-4.45 151.75 -5.2 147.54 -5.96 143.34 C-6.25 141.69 -6.54 140.03 -6.82 138.38 C-7.21 136.04 -7.63 133.71 -8.05 131.38 C-8.17 130.69 -8.28 129.99 -8.39 129.28 C-9.32 124.4 -11.06 121.9 -14.9 118.79 C-17.11 118.48 -17.11 118.48 -19.27 118.91 C-19.63 118.97 -19.63 118.97 -21.42 119.29 C-22.24 119.46 -23.06 119.62 -23.9 119.79 C-26.23 120.12 -28.56 120.46 -30.9 120.79 C-30.84 121.09 -30.84 121.09 -30.52 122.62 C-27.26 138.68 -24.18 154.77 -21.25 170.9 C-20.57 174.6 -19.89 178.31 -19.21 182.02 C-18.78 184.39 -18.34 186.77 -17.91 189.14 C-17.71 190.24 -17.5 191.34 -17.29 192.47 C-17.11 193.49 -16.93 194.51 -16.74 195.57 C-16.57 196.46 -16.41 197.35 -16.24 198.26 C-15.9 200.8 -15.84 203.22 -15.9 205.79 C-19.9 206.79 -23.9 207.79 -27.9 208.78 C-29.26 209.11 -30.62 209.45 -31.98 209.79 C-33.94 210.29 -35.91 210.77 -37.87 211.25 C-39.05 211.55 -40.23 211.84 -41.44 212.14 C-45.01 212.81 -48.28 212.9 -51.9 212.79 C-53.05 206.43 -54.19 200.08 -55.34 193.72 C-55.53 192.67 -55.71 191.62 -55.91 190.54 C-58.74 174.82 -61.56 159.09 -64.36 143.36 C-65.81 135.23 -67.27 127.1 -68.72 118.97 C-69.27 115.85 -69.83 112.73 -70.39 109.61 C-74.01 89.27 -77.65 68.94 -81.48 48.64 C-81.61 47.93 -81.75 47.21 -81.88 46.48 C-83.22 39.38 -84.57 32.29 -85.94 25.2 C-86.36 23.01 -86.77 20.83 -87.19 18.64 C-87.28 18.16 -87.28 18.16 -87.77 15.7 C-87.85 15.26 -87.85 15.26 -88.27 13.03 C-88.42 12.28 -88.56 11.52 -88.72 10.75 C-88.9 8.79 -88.9 8.79 -87.9 5.79 C-85.48 4.9 -85.48 4.9 -82.22 4.17 C-81.02 3.9 -79.81 3.62 -78.56 3.34 C-77.24 3.05 -75.91 2.76 -74.59 2.47 C-73.23 2.17 -71.87 1.87 -70.52 1.56 C-67.71 0.94 -64.91 0.32 -62.1 -0.29 C-58.1 -1.17 -54.12 -2.08 -50.13 -3 C-47.7 -3.55 -45.27 -4.1 -42.84 -4.65 C-41.73 -4.91 -40.62 -5.17 -39.48 -5.44 C-25.41 -8.53 -12.05 -8.66 0 0 Z " fill="#000000" transform="translate(451.8984375,685.21484375)"/>
<path d="M0 0 C0.42 0 0.42 0 2.55 0 C5.24 0.01 7.93 0.02 10.62 0.04 C12.44 0.04 14.26 0.04 16.08 0.05 C20.55 0.06 25.02 0.08 29.49 0.1 C32.51 16.26 35.2 32.46 37.76 48.7 C38.16 51.24 38.56 53.78 38.96 56.31 C39.91 62.29 40.85 68.27 41.79 74.24 C42.93 81.51 44.08 88.77 45.23 96.03 C47.46 110.15 49.69 124.27 51.91 138.38 C52.3 140.85 52.69 143.32 53.07 145.79 C54.18 152.84 55.29 159.9 56.4 166.95 C56.74 169.08 57.07 171.2 57.41 173.33 C58.3 179.01 59.19 184.68 60.07 190.36 C60.51 193.22 60.96 196.07 61.42 198.93 C61.7 200.77 61.99 202.62 62.28 204.47 C62.35 204.89 62.35 204.89 62.7 207.06 C63 209.07 63.25 211.08 63.49 213.1 C62.49 214.1 62.49 214.1 59.17 214.21 C57.69 214.21 56.21 214.21 54.74 214.2 C53.96 214.19 53.19 214.19 52.39 214.19 C49.9 214.19 47.42 214.17 44.93 214.16 C43.25 214.16 41.57 214.15 39.88 214.15 C35.75 214.14 31.62 214.12 27.49 214.1 C26.79 210.03 26.1 205.96 25.41 201.88 C25.18 200.5 24.94 199.12 24.7 197.74 C24.36 195.74 24.02 193.74 23.68 191.73 C23.48 190.54 23.28 189.34 23.06 188.1 C22.35 183.12 21.95 178.11 21.49 173.1 C13.9 173.43 6.31 173.76 -1.51 174.1 C-1.85 176.55 -2.18 179.01 -2.53 181.54 C-2.86 183.94 -3.2 186.33 -3.53 188.72 C-3.77 190.38 -3.99 192.03 -4.22 193.69 C-4.55 196.08 -4.88 198.47 -5.22 200.86 C-5.32 201.59 -5.42 202.32 -5.52 203.08 C-6.13 207.39 -7.11 210.9 -8.51 215.1 C-20.06 215.1 -31.61 215.1 -43.51 215.1 C-40 191.11 -36.41 167.14 -32.74 143.18 C-32.31 140.43 -31.89 137.67 -31.47 134.91 C-27.78 110.83 -24.08 86.76 -20.32 62.69 C-20.02 60.77 -19.72 58.85 -19.42 56.93 C-18.5 51.05 -17.57 45.16 -16.64 39.28 C-15.92 34.75 -15.22 30.21 -14.53 25.68 C-14.08 22.78 -13.63 19.88 -13.18 16.98 C-12.96 15.58 -12.75 14.18 -12.54 12.78 C-12.25 10.84 -11.94 8.91 -11.64 6.97 C-11.55 6.41 -11.55 6.41 -11.12 3.6 C-10.92 2.78 -10.72 1.95 -10.51 1.1 C-7.23 -0.54 -3.6 -0.02 0 0 Z " fill="#000000" transform="translate(691.5078125,651.90234375)"/>
<path d="M0 0 C2.23 3.39 1.87 7.32 2.04 11.27 C2.1 12.14 2.16 13.01 2.22 13.9 C2.24 14.32 2.24 14.32 2.34 16.43 C2.36 16.81 2.36 16.81 2.46 18.73 C2.06 21.46 1.35 22.11 -0.84 23.77 C-3.62 24.33 -3.62 24.33 -7.06 24.58 C-8.35 24.69 -9.65 24.79 -10.98 24.9 C-12.41 25 -13.83 25.1 -15.26 25.2 C-16.75 25.32 -18.23 25.43 -19.71 25.55 C-22.88 25.8 -26.04 26.04 -29.2 26.28 C-36.66 26.83 -44.11 27.43 -51.57 28.04 C-53.22 28.17 -54.88 28.3 -56.54 28.44 C-152.46 36.12 -247.68 53.36 -471.03 121.01 C-471.64 121.26 -471.64 121.26 -474.69 122.53 C-475.21 122.74 -475.21 122.74 -477.81 123.85 C-481.31 124.92 -484.19 125.04 -487.84 124.77 C-489.59 123.21 -489.59 123.21 -490.84 120.77 C-491.41 119.68 -491.99 118.59 -492.59 117.46 C-494.1 113 -494.67 111.16 -492.84 106.77 C-484.74 101.58 -475.23 98.42 -466.27 95.02 C-464.9 94.5 -463.52 93.97 -462.14 93.44 C-459.35 92.38 -456.57 91.32 -453.78 90.26 C-450.29 88.94 -446.81 87.61 -443.32 86.26 C-363.11 55.65 -278.5 35.49 -66.96 3.46 C-66.34 3.4 -66.34 3.4 -63.19 3.09 C-49.27 1.72 -35.35 0.54 -21.39 -0.4 C-20.76 -0.44 -20.76 -0.44 -17.55 -0.65 C-2.43 -1.63 -2.43 -1.63 0 0 Z " fill="#B98F22" transform="translate(592.83642578125,577.228515625)"/>
<path d="M0 0 C1.63 0.08 3.25 0.17 4.88 0.27 C5.8 0.32 6.72 0.37 7.67 0.43 C93.91 5.63 180.91 18 288.11 42.51 C290.61 43.12 293.11 43.73 295.61 44.34 C330.31 52.79 364.62 62.12 398.5 73.43 C399.81 73.87 401.11 74.3 402.41 74.74 C427.72 83.16 452.59 92.54 477.25 102.71 C478.26 103.12 479.27 103.53 480.31 103.96 C481.23 104.34 482.14 104.73 483.09 105.12 C483.88 105.45 484.68 105.79 485.5 106.13 C487.44 107.08 487.44 107.08 489.44 109.08 C490.5 115.15 487.37 119.98 484.44 125.08 C483.44 126.08 483.44 126.08 480.61 126.43 C474.93 126.34 469.9 123.71 464.75 121.52 C454.64 117.26 444.41 113.54 434.04 109.98 C431.52 109.11 429 108.23 426.48 107.36 C323.19 71.43 215.69 48.74 21.75 27.18 C20.84 27.11 19.94 27.04 19.01 26.97 C14.82 26.66 10.62 26.35 6.43 26.07 C4.98 25.97 3.53 25.86 2.09 25.76 C1.46 25.72 1.46 25.72 -1.68 25.51 C-4.56 25.08 -4.56 25.08 -6.56 23.08 C-7.33 16.37 -6.78 8.71 -5.56 2.08 C-3.56 0.08 -3.56 0.08 0 0 Z " fill="#B98F22" transform="translate(947.55859375,575.91796875)"/>
<path d="M0 0 C0.42 0.02 0.42 0.02 2.52 0.14 C2.97 0.17 2.97 0.17 5.25 0.29 C6.19 0.35 7.14 0.4 8.11 0.46 C8.59 0.49 8.59 0.49 10.99 0.62 C13.34 0.75 15.7 0.88 18.05 1.02 C19.99 6.41 21.27 11.89 22.55 17.46 C22.79 18.49 23.03 19.51 23.28 20.56 C23.79 22.76 24.3 24.96 24.82 27.15 C26.17 32.96 27.53 38.76 28.89 44.57 C29.16 45.73 29.43 46.89 29.71 48.08 C32 57.84 34.35 67.59 36.74 77.33 C41.28 95.87 45.67 114.44 50.05 133.02 C50.82 126.1 51.28 119.23 51.52 112.27 C51.55 111.25 51.59 110.22 51.63 109.17 C51.71 106.96 51.79 104.75 51.87 102.55 C51.99 99.04 52.12 95.54 52.25 92.04 C52.52 84.59 52.78 77.15 53.05 69.71 C53.36 61.09 53.67 52.47 53.99 43.85 C54.11 40.42 54.23 36.98 54.35 33.55 C54.72 23.35 55.15 13.19 56.05 3.02 C61.66 3.02 67.27 3.02 73.05 3.02 C73.11 14.06 72.91 25.05 72.5 36.08 C72.44 37.71 72.38 39.35 72.32 40.99 C72.16 45.38 72 49.77 71.84 54.16 C71.67 58.78 71.5 63.4 71.33 68.02 C71.12 73.79 70.91 79.56 70.7 85.33 C70.23 98.03 69.77 110.74 69.32 123.44 C69.12 129.06 68.92 134.67 68.72 140.29 C68.56 144.76 68.4 149.24 68.24 153.71 C68.09 157.92 67.94 162.12 67.78 166.32 C67.73 167.85 67.67 169.38 67.62 170.91 C67.29 180.3 66.77 189.65 66.05 199.02 C60.11 199.02 54.17 199.02 48.05 199.02 C46.35 194.76 45.18 190.72 44.19 186.28 C43.8 184.59 43.41 182.91 43.03 181.23 C42.82 180.32 42.61 179.4 42.4 178.46 C36.48 152.61 30.17 126.85 23.86 101.08 C23.38 99.09 22.89 97.1 22.4 95.1 C19.62 83.74 16.84 72.38 14.05 61.02 C13.39 67.74 12.87 74.43 12.62 81.18 C12.6 81.61 12.6 81.61 12.52 83.81 C12.44 85.71 12.37 87.61 12.29 89.52 C12.17 92.6 12.05 95.68 11.93 98.76 C11.47 110.23 11.02 121.7 10.59 133.17 C10.32 140.04 10.06 146.92 9.79 153.8 C9.59 158.94 9.39 164.09 9.2 169.23 C9.08 172.47 8.95 175.71 8.82 178.94 C8.76 180.47 8.71 181.99 8.65 183.52 C8.57 185.61 8.49 187.71 8.41 189.8 C8.36 190.98 8.32 192.17 8.27 193.38 C8.05 196.02 8.05 196.02 7.05 197.02 C4.37 197.12 1.73 197.16 -0.95 197.15 C-1.7 197.15 -2.45 197.15 -3.22 197.16 C-8.82 197.15 -8.82 197.15 -9.95 196.02 C-9.99 194.03 -9.96 192.04 -9.9 190.05 C-9.86 188.74 -9.82 187.42 -9.78 186.07 C-9.73 184.59 -9.68 183.11 -9.63 181.63 C-9.58 180.06 -9.54 178.5 -9.49 176.94 C-8.82 155.87 -7.97 134.81 -7.15 113.74 C-6.74 103.38 -6.34 93.02 -5.93 82.66 C-5.89 81.54 -5.85 80.42 -5.8 79.26 C-5.26 65.45 -4.75 51.63 -4.28 37.82 C-4.23 36.45 -4.18 35.08 -4.14 33.7 C-3.93 27.72 -3.73 21.73 -3.55 15.74 C-3.48 13.73 -3.41 11.72 -3.34 9.71 C-3.33 9.27 -3.33 9.27 -3.27 7.02 C-3.02 0.03 -3.02 0.03 0 0 Z " fill="#000000" transform="translate(808.949462890625,660.978271484375)"/>
<path d="M0 0 C0.92 -0 1.85 -0.01 2.8 -0.01 C4.03 -0.02 5.27 -0.02 6.54 -0.03 C7.82 -0.03 9.11 -0.04 10.43 -0.05 C12.46 -0.06 14.48 -0.07 16.51 -0.08 C18.33 -0.09 20.15 -0.09 21.97 -0.1 C23.15 -0.1 24.33 -0.11 25.54 -0.11 C29.09 0 32.5 0.43 36 1 C37.89 8.77 39.78 16.55 41.66 24.32 C42.54 27.93 43.41 31.54 44.29 35.15 C51.74 65.82 51.74 65.82 55 81 C55.86 72.78 56.26 64.59 56.5 56.34 C56.52 55.7 56.52 55.7 56.62 52.48 C56.77 47.76 56.92 43.04 57.06 38.33 C57.2 33.68 57.35 29.04 57.5 24.4 C57.52 23.79 57.52 23.79 57.61 20.73 C57.81 14.43 58.2 8.25 59 2 C70.06 1.89 80.98 2.09 92 3 C93.21 6.72 93.03 10.16 92.9 14.05 C92.89 14.4 92.89 14.4 92.83 16.2 C92.75 18.6 92.67 21 92.58 23.39 C92.52 25.13 92.47 26.86 92.41 28.59 C92.25 33.34 92.08 38.08 91.92 42.83 C91.78 46.82 91.64 50.81 91.51 54.8 C91.14 65.65 90.76 76.5 90.37 87.35 C90.07 95.93 89.77 104.5 89.48 113.07 C89.04 125.81 88.59 138.54 88.14 151.28 C87.96 156.26 87.79 161.24 87.61 166.22 C87.41 172.12 87.2 178.02 86.99 183.93 C86.91 186.11 86.83 188.29 86.76 190.47 C86.65 193.47 86.54 196.46 86.43 199.46 C86.42 199.89 86.42 199.89 86.34 202.1 C86.31 202.91 86.28 203.72 86.25 204.56 C86.23 205.25 86.2 205.94 86.18 206.66 C85.94 209.79 85.44 212.89 85 216 C74.11 215.67 63.22 215.34 52 215 C50.75 211.26 49.65 207.82 48.78 204.02 C48.56 203.08 48.35 202.13 48.12 201.16 C47.89 200.15 47.66 199.14 47.43 198.09 C47.18 197.03 46.94 195.96 46.68 194.86 C45.89 191.41 45.1 187.95 44.31 184.5 C43.77 182.14 43.23 179.78 42.69 177.42 C41.88 173.89 41.07 170.37 40.26 166.85 C38.11 157.48 35.94 148.11 33.75 138.75 C33.46 137.52 33.18 136.29 32.88 135.03 C32.25 132.35 31.63 129.68 31 127 C29.99 133.92 29.71 140.78 29.5 147.77 C29.48 148.38 29.48 148.38 29.38 151.49 C29.25 155.41 29.12 159.33 29 163.25 C28.84 168.38 28.67 173.51 28.5 178.64 C28.46 179.88 28.42 181.11 28.38 182.38 C28.03 192.59 27.56 202.8 27 213 C23.41 214.2 20.71 214.02 16.93 213.88 C16.24 213.86 15.56 213.83 14.85 213.81 C12.67 213.73 10.49 213.65 8.31 213.56 C6.83 213.51 5.35 213.46 3.87 213.4 C0.25 213.28 -3.38 213.14 -7 213 C-7.94 209.08 -8.06 205.58 -7.91 201.56 C-7.88 200.91 -7.88 200.91 -7.77 197.61 C-7.71 196.17 -7.65 194.73 -7.59 193.29 C-7.54 191.77 -7.48 190.25 -7.43 188.72 C-7.28 184.58 -7.12 180.44 -6.96 176.3 C-6.79 171.91 -6.62 167.53 -6.46 163.15 C-6.19 155.74 -5.91 148.34 -5.62 140.94 C-5.23 130.67 -4.84 120.4 -4.46 110.13 C-3.09 73.41 -1.69 36.7 0 0 Z M8 9 C7.82 11.38 7.7 13.74 7.61 16.12 C7.58 16.88 7.56 17.63 7.52 18.41 C7.43 20.95 7.34 23.5 7.24 26.04 C7.18 27.86 7.11 29.68 7.04 31.5 C6.85 36.45 6.67 41.41 6.49 46.36 C6.29 51.55 6.1 56.73 5.9 61.91 C5.58 70.62 5.25 79.34 4.93 88.05 C4.52 99.22 4.11 110.39 3.69 121.56 C3.33 131.17 2.97 140.77 2.61 150.38 C2.5 153.46 2.38 156.55 2.27 159.63 C2.08 164.49 1.9 169.35 1.73 174.21 C1.66 175.99 1.59 177.77 1.53 179.55 C1.44 181.99 1.35 184.42 1.26 186.86 C1.23 187.56 1.21 188.26 1.18 188.97 C1.05 192.63 0.96 196.29 0.92 199.95 C0.91 200.7 0.9 201.45 0.89 202.22 C1 204 1 204 2 205 C4.68 205.1 7.32 205.14 10 205.12 C10.75 205.13 11.5 205.13 12.27 205.14 C17.87 205.13 17.87 205.13 19 204 C19.17 201.93 19.28 199.85 19.36 197.78 C19.37 197.45 19.37 197.45 19.44 195.8 C19.52 193.6 19.6 191.41 19.68 189.22 C19.74 187.67 19.8 186.12 19.86 184.58 C19.99 181.27 20.12 177.97 20.24 174.66 C20.44 169.51 20.64 164.35 20.84 159.2 C21.1 152.34 21.37 145.48 21.63 138.62 C22.08 126.93 22.53 115.25 23 103.57 C23.12 100.57 23.24 97.58 23.35 94.59 C23.43 92.78 23.5 90.97 23.57 89.16 C23.6 88.38 23.63 87.6 23.66 86.8 C23.9 80.85 24.42 74.93 25 69 C28.12 81.69 31.25 94.39 34.36 107.08 C35.81 112.98 37.26 118.88 38.72 124.78 C40.4 131.61 42.07 138.44 43.75 145.27 C44.02 146.38 44.3 147.49 44.58 148.64 C48.45 164.45 52.21 180.28 55.73 196.18 C55.88 196.85 56.03 197.52 56.18 198.21 C56.58 199.98 56.97 201.75 57.36 203.52 C58 206 58 206 59 207 C60.34 207.09 61.69 207.11 63.04 207.1 C63.84 207.09 64.65 207.09 65.49 207.09 C66.34 207.08 67.19 207.07 68.06 207.06 C68.92 207.06 69.77 207.05 70.65 207.05 C72.77 207.04 74.88 207.02 77 207 C78.66 176.35 79.85 145.69 80.93 115.01 C81.15 108.94 81.37 102.86 81.59 96.79 C82.07 83.52 82.53 70.26 83 57 C83.03 56.13 83.06 55.26 83.09 54.37 C83.27 49.32 83.44 44.27 83.62 39.22 C83.66 38.08 83.7 36.94 83.74 35.76 C84.01 27.5 84.08 19.27 84 11 C78.39 11 72.78 11 67 11 C66 22.28 65.58 33.57 65.18 44.88 C65.06 48.39 64.93 51.89 64.8 55.39 C64.49 64.09 64.18 72.78 63.86 81.47 C63.6 88.84 63.33 96.21 63.06 103.57 C62.94 107.01 62.82 110.45 62.7 113.89 C62.62 116.01 62.54 118.13 62.46 120.25 C62.43 121.19 62.4 122.14 62.37 123.11 C62.14 129.1 61.67 135.04 61 141 C60.88 140.49 60.88 140.49 60.27 137.94 C59.1 133 57.92 128.06 56.75 123.12 C56.53 122.2 56.31 121.27 56.08 120.32 C53.4 109.02 50.7 97.73 47.98 86.45 C47.22 83.29 46.46 80.13 45.7 76.97 C45.19 74.87 44.68 72.76 44.18 70.65 C41.49 59.51 38.84 48.37 36.27 37.2 C36.06 36.27 35.85 35.35 35.63 34.4 C34.64 30.07 33.66 25.74 32.68 21.41 C32.33 19.9 31.99 18.38 31.64 16.87 C31.49 16.18 31.34 15.49 31.18 14.78 C30.11 10.11 30.11 10.11 29 9 C25.68 8.62 22.34 8.53 19 8.38 C18.53 8.35 18.53 8.35 16.15 8.22 C15.7 8.2 15.7 8.2 13.44 8.09 C12.61 8.05 11.78 8 10.93 7.96 C9 8 9 8 8 9 Z " fill="#FFFFFF" transform="translate(798,653)"/>
<path d="M0 0 C13.65 1.13 13.65 1.13 19 3 C20.23 5.45 19.94 6.41 19.52 9.1 C19.39 9.96 19.26 10.81 19.12 11.7 C18.97 12.65 18.82 13.59 18.66 14.57 C18.51 15.56 18.36 16.56 18.2 17.58 C17.68 20.91 17.15 24.24 16.62 27.56 C16.26 29.91 15.89 32.26 15.53 34.6 C14.55 40.82 13.57 47.03 12.59 53.25 C12.01 56.91 11.44 60.57 10.86 64.23 C9.93 70.16 9 76.08 8.06 82.01 C7.69 84.38 7.31 86.75 6.94 89.12 C5.06 101.08 3.16 113.04 1.21 124.99 C0.44 129.71 -0.32 134.42 -1.08 139.13 C-1.44 141.35 -1.8 143.57 -2.17 145.79 C-2.68 148.85 -3.17 151.91 -3.66 154.97 C-3.82 155.86 -3.97 156.74 -4.12 157.66 C-5.2 164.54 -5.46 170.91 -2.44 177.31 C2.19 182.42 7.86 184.62 14.7 185.09 C18.74 184.93 22.55 184.16 26 182 C29.16 177.85 30.64 174.49 31.55 169.38 C31.66 168.74 31.78 168.09 31.9 167.43 C32.29 165.29 32.64 163.15 33 161 C33.13 160.25 33.25 159.51 33.38 158.74 C34.38 152.8 35.32 146.85 36.26 140.91 C36.57 138.97 36.87 137.03 37.18 135.09 C37.83 131 38.48 126.91 39.12 122.82 C40.63 113.29 42.15 103.75 43.67 94.22 C44 92.11 44.34 90 44.67 87.89 C47.55 69.8 50.47 51.71 53.44 33.62 C53.63 32.47 53.82 31.32 54.01 30.14 C55 24.09 56 18.05 57 12 C61.15 10.75 64.54 11.47 68.69 12.38 C69.38 12.51 70.07 12.65 70.78 12.8 C75.86 13.86 75.86 13.86 77 15 C77.06 25.49 74.58 36.13 72.82 46.42 C71.81 52.33 70.81 58.25 69.82 64.17 C69.71 64.82 69.71 64.82 69.15 68.1 C67.28 79.26 65.46 90.44 63.65 101.61 C63.51 102.5 63.37 103.38 63.22 104.29 C61.92 112.3 60.63 120.3 59.35 128.3 C54.09 161.01 54.09 161.01 51.76 173.5 C51.61 174.31 51.46 175.12 51.31 175.95 C49.49 185.39 45.81 193.15 38 199 C25.27 206.17 11.84 204.71 -1.84 201.26 C-7 199.81 -11.05 197.65 -15 194 C-15.57 193.48 -16.14 192.95 -16.72 192.41 C-24.3 184.49 -25.49 175.79 -25.28 165.17 C-24.85 154.76 -22.94 144.46 -21.31 134.19 C-20.92 131.63 -20.52 129.06 -20.13 126.5 C-19.25 120.84 -18.37 115.18 -17.49 109.52 C-15.99 99.95 -14.52 90.37 -13.05 80.79 C-11.89 73.21 -10.72 65.64 -9.56 58.06 C-9.27 56.19 -8.98 54.32 -8.7 52.46 C-7.87 47.08 -7.04 41.71 -6.21 36.34 C-5.96 34.7 -5.7 33.06 -5.45 31.42 C-3.83 20.91 -2.03 10.44 0 0 Z " fill="#000000" transform="translate(1082,690)"/>
<path d="M0 0 C5.29 20.68 10.15 41.44 14.89 62.24 C16.51 69.32 18.13 76.4 19.75 83.48 C19.92 84.25 20.1 85.01 20.28 85.81 C24.38 103.75 28.59 121.68 32.85 139.59 C33.12 140.7 33.38 141.82 33.66 142.97 C33.89 143.95 34.12 144.92 34.36 145.92 C37.41 159.07 39.88 172.58 33 185 C25.75 195.53 16.09 200.36 3.89 203.31 C-6.84 205.22 -16.06 205.08 -25.19 198.81 C-37.85 186.15 -39.3 163.59 -43.27 146.83 C-43.92 144.1 -44.57 141.37 -45.22 138.64 C-47.48 129.1 -49.74 119.55 -52 110 C-52.18 109.24 -52.36 108.47 -52.55 107.69 C-55.09 96.93 -57.63 86.17 -60.17 75.4 C-60.68 73.21 -61.2 71.02 -61.72 68.83 C-67.86 42.77 -67.86 42.77 -70.46 31.24 C-70.62 30.52 -70.78 29.81 -70.95 29.07 C-71.57 26.31 -72 23.85 -72 21 C-69.94 20.32 -67.88 19.66 -65.81 19 C-64.66 18.63 -63.52 18.26 -62.33 17.88 C-59.33 17.09 -57.07 16.93 -54 17 C-43.79 57.14 -34.45 97.49 -24.98 137.81 C-24.17 141.25 -23.36 144.69 -22.55 148.12 C-21.26 153.6 -19.97 159.07 -18.78 164.57 C-18.61 165.36 -18.43 166.16 -18.25 166.97 C-17.82 168.92 -17.41 170.87 -17 172.83 C-15.41 177.88 -13.35 181.18 -8.81 183.94 C-1.87 185.87 4.03 184.64 10.28 181.15 C15.05 177.96 16.64 174.12 17.76 168.71 C18.23 163.32 16.74 158.22 15.49 153.01 C15.21 151.78 14.93 150.54 14.64 149.27 C13.77 145.51 12.89 141.76 12 138 C11.52 135.89 11.03 133.78 10.55 131.67 C9.37 126.5 8.17 121.34 6.96 116.18 C5.57 110.25 4.19 104.31 2.81 98.38 C2.52 97.11 2.22 95.84 1.91 94.52 C-1.59 79.46 -5.09 64.39 -8.57 49.31 C-9.53 45.12 -10.5 40.92 -11.48 36.73 C-12.4 32.77 -13.31 28.8 -14.22 24.84 C-14.56 23.36 -14.91 21.89 -15.25 20.42 C-15.72 18.4 -16.18 16.38 -16.65 14.36 C-16.91 13.22 -17.17 12.08 -17.44 10.91 C-18 8 -18 8 -18 4 C-15.75 3.33 -13.5 2.66 -11.25 2 C-10 1.63 -8.74 1.26 -7.45 0.88 C-4 0 -4 0 0 0 Z " fill="#000000" transform="translate(310,712)"/>
<path d="M0 0 C12.12 1.41 24.04 3.62 36 6 C35.51 19.45 33.15 32.62 31 45.88 C30.6 48.4 30.19 50.92 29.79 53.44 C28.85 59.34 27.9 65.23 26.95 71.13 C25.83 78.04 24.72 84.95 23.61 91.86 C23.23 94.27 22.84 96.68 22.45 99.09 C21.7 103.79 20.94 108.5 20.19 113.21 C19.82 115.49 19.45 117.77 19.09 120.05 C18.91 121.16 18.73 122.26 18.55 123.4 C17.56 129.53 16.56 135.67 15.56 141.8 C14.98 145.33 14.4 148.86 13.83 152.39 C13.57 153.97 13.31 155.56 13.05 157.14 C9.91 175.89 9.91 175.89 11 182 C12.91 184.48 13.96 184.99 17 186 C19.16 186.2 19.16 186.2 21.5 186.25 C22.27 186.28 23.05 186.3 23.84 186.33 C26.67 185.9 27.27 185.28 29 183 C29.85 179.83 29.85 179.83 30.51 175.92 C30.63 175.21 30.76 174.51 30.88 173.78 C31.27 171.52 31.64 169.26 32 167 C32.12 166.29 32.23 165.57 32.35 164.84 C33.07 160.44 33.77 156.03 34.45 151.62 C35.09 147.43 35.75 143.25 36.41 139.07 C36.47 138.64 36.47 138.64 36.81 136.48 C38.09 128.37 39.45 120.28 40.81 112.19 C43.94 93.66 46.85 75.11 49.75 56.55 C52.08 41.68 54.49 26.84 57 12 C61.1 10.78 64.31 11.48 68.39 12.43 C69.1 12.59 69.8 12.75 70.53 12.91 C72.77 13.41 75.01 13.92 77.25 14.44 C78.77 14.78 80.3 15.12 81.82 15.46 C85.55 16.3 89.28 17.15 93 18 C94.41 21.86 93.67 25.35 92.99 29.29 C92.87 30.02 92.75 30.75 92.62 31.51 C92.22 33.95 91.8 36.4 91.39 38.84 C91.1 40.57 90.81 42.31 90.52 44.04 C89.75 48.71 88.96 53.37 88.18 58.04 C87.36 62.88 86.56 67.72 85.75 72.56 C84.61 79.39 83.47 86.22 82.33 93.05 C80.53 103.82 78.74 114.59 76.98 125.37 C76.87 126.06 76.75 126.76 76.64 127.48 C75.88 132.09 75.13 136.7 74.38 141.31 C73.26 148.11 72.15 154.9 71.03 161.7 C70.32 166.04 69.62 170.39 68.92 174.74 C68.57 176.91 68.21 179.07 67.86 181.24 C67.79 181.73 67.79 181.73 67.39 184.22 C65.12 198.09 59.8 208.11 48.5 216.94 C36.68 224.58 22.55 223.62 9.32 221.01 C-2.67 218.37 -14.14 212.52 -21 202 C-28.54 186.87 -27.22 173.96 -24.64 157.76 C-24 153.79 -23.39 149.81 -22.77 145.82 C-22.42 143.59 -22.07 141.36 -21.73 139.13 C-20.24 129.6 -18.8 120.06 -17.37 110.52 C-17.25 109.77 -17.14 109.01 -17.02 108.23 C-16.56 105.12 -16.09 102.01 -15.63 98.9 C-11.94 74.32 -8.22 49.74 -4.38 25.19 C-4.21 24.11 -4.04 23.03 -3.87 21.92 C-3.4 18.94 -2.93 15.96 -2.46 12.98 C-2.33 12.12 -2.19 11.25 -2.05 10.37 C-1.93 9.58 -1.8 8.79 -1.67 7.98 C-1.57 7.3 -1.46 6.62 -1.35 5.93 C-0.99 3.92 -0.51 1.97 0 0 Z M7 10 C4.17 24.19 1.97 38.47 -0.24 52.76 C-0.57 54.83 -0.89 56.9 -1.21 58.97 C-5.17 84.39 -9 109.83 -12.78 135.28 C-12.83 135.62 -12.83 135.62 -13.08 137.36 C-13.56 140.55 -14.03 143.75 -14.5 146.95 C-15.5 153.7 -16.53 160.45 -17.6 167.19 C-19.35 179.42 -18.96 190.81 -11.46 201.11 C-2.8 210.69 9.91 213.21 22.28 214.29 C31.39 214.55 39.81 212.88 47 207 C54.18 199.93 57.37 192.19 59.02 182.36 C59.18 181.45 59.35 180.53 59.51 179.59 C60.02 176.73 60.51 173.87 61 171 C61.31 169.24 61.61 167.48 61.92 165.72 C62.87 160.23 63.78 154.74 64.69 149.25 C64.77 148.75 64.77 148.75 65.19 146.21 C68.5 126.32 71.64 106.4 74.76 86.48 C76.43 75.83 78.11 65.19 79.9 54.56 C80.05 53.71 80.19 52.85 80.34 51.97 C80.99 48.09 81.65 44.21 82.32 40.34 C82.55 39.01 82.78 37.69 83 36.36 C83.2 35.24 83.39 34.12 83.59 32.97 C83.96 30.26 84.08 27.73 84 25 C79.72 23.45 75.63 22.52 71.12 21.88 C69.97 21.71 68.82 21.54 67.63 21.37 C66.76 21.25 65.9 21.12 65 21 C63.3 26.5 62.24 31.96 61.34 37.64 C61.19 38.58 61.03 39.53 60.87 40.5 C60.37 43.63 59.87 46.76 59.37 49.89 C59.01 52.12 58.65 54.34 58.29 56.57 C57.34 62.46 56.39 68.35 55.45 74.24 C54.7 78.89 53.95 83.54 53.2 88.19 C52.65 91.63 52.09 95.07 51.54 98.51 C50.8 103.1 50.06 107.69 49.32 112.28 C47.63 122.77 45.95 133.26 44.35 143.76 C43.64 148.39 42.92 153.02 42.2 157.64 C41.87 159.82 41.54 162 41.21 164.19 C40.76 167.2 40.3 170.21 39.83 173.22 C39.7 174.1 39.58 174.98 39.45 175.88 C38.43 182.26 36.79 188.53 31.81 192.94 C24.09 195.85 17.56 195.19 10 192 C6.19 189.73 3.99 187.27 2.43 183.06 C0.29 172.83 4.52 159.48 6.1 149.25 C6.41 147.2 6.72 145.15 7.04 143.1 C7.87 137.67 8.71 132.23 9.55 126.79 C10.06 123.44 10.58 120.08 11.09 116.73 C15.25 89.64 19.43 62.56 23.83 35.51 C23.97 34.61 24.12 33.72 24.27 32.8 C24.53 31.21 24.79 29.62 25.05 28.03 C25.81 23.36 26.44 18.69 27 14 C23.5 12.49 20.19 11.53 16.44 10.88 C15.51 10.71 14.58 10.54 13.62 10.37 C11 10 11 10 7 10 Z " fill="#FFFFFF" transform="translate(1075,680)"/>
<path d="M0 0 C6.38 26.36 12.68 52.73 18.69 79.17 C21.33 90.73 23.99 102.28 26.7 113.82 C27.01 115.19 27.33 116.55 27.65 117.91 C28.91 123.27 30.16 128.62 31.42 133.97 C40.81 173.87 40.81 173.87 40 182 C39.96 182.43 39.96 182.43 39.75 184.6 C38.22 195.83 32.74 204.87 24 212 C11.72 221.17 -3.88 224.95 -19 224 C-29.37 222.26 -36.98 216.9 -43.39 208.73 C-47.9 201.06 -50.02 192.62 -51.96 184.01 C-52.23 182.85 -52.49 181.7 -52.77 180.51 C-53.49 177.37 -54.21 174.23 -54.93 171.09 C-55.69 167.76 -56.46 164.42 -57.23 161.09 C-58.35 156.22 -59.47 151.35 -60.59 146.48 C-63.47 133.94 -66.39 121.41 -69.31 108.88 C-70.18 105.14 -71.06 101.4 -71.93 97.65 C-74.69 85.81 -77.47 73.97 -80.32 62.15 C-80.59 61.06 -80.85 59.98 -81.12 58.86 C-82.34 53.79 -83.56 48.72 -84.8 43.65 C-85.23 41.88 -85.66 40.11 -86.09 38.34 C-86.28 37.55 -86.48 36.75 -86.68 35.94 C-87.51 32.49 -88 29.57 -88 26 C-83.64 24.71 -79.28 23.43 -74.92 22.15 C-73.44 21.72 -71.95 21.28 -70.47 20.85 C-68.34 20.22 -66.21 19.59 -64.07 18.97 C-63.41 18.77 -62.75 18.58 -62.07 18.37 C-59.26 17.56 -56.94 17 -54 17 C-47.46 42.86 -41.15 68.76 -35.1 94.73 C-34.07 99.15 -33.04 103.56 -32.01 107.97 C-28.52 122.85 -25.06 137.73 -21.62 152.62 C-21.38 153.66 -21.14 154.7 -20.9 155.76 C-19.85 160.3 -18.8 164.84 -17.77 169.39 C-17.42 170.91 -17.07 172.43 -16.71 173.95 C-16.43 175.21 -16.14 176.47 -15.84 177.77 C-15.09 180.66 -14.29 183.31 -13 186 C-9.04 187.98 -4.8 187.19 -0.62 186.19 C0.24 185.8 1.11 185.4 2 185 C5.19 175.42 1.41 165.09 -0.87 155.64 C-1.28 153.91 -1.69 152.18 -2.1 150.46 C-2.95 146.82 -3.82 143.18 -4.68 139.54 C-6.61 131.47 -8.47 123.38 -10.35 115.3 C-11.4 110.77 -12.45 106.24 -13.51 101.71 C-13.72 100.81 -13.93 99.91 -14.15 98.98 C-15.21 94.4 -16.28 89.82 -17.35 85.24 C-19.84 74.54 -22.33 63.84 -24.81 53.14 C-25.61 49.69 -26.41 46.24 -27.21 42.79 C-28.17 38.66 -29.13 34.53 -30.09 30.39 C-30.44 28.87 -30.79 27.34 -31.15 25.81 C-31.64 23.72 -32.12 21.63 -32.6 19.54 C-32.74 18.96 -32.74 18.96 -33.42 15.99 C-34 13 -34 13 -34 9 C-29.64 7.71 -25.28 6.43 -20.92 5.15 C-19.44 4.72 -17.95 4.28 -16.47 3.85 C-14.34 3.22 -12.21 2.59 -10.07 1.97 C-9.74 1.87 -9.74 1.87 -8.07 1.37 C-5.26 0.56 -2.94 0 0 0 Z M-17.25 13 C-18.51 13.37 -19.78 13.74 -21.08 14.12 C-22.04 14.41 -23.01 14.7 -24 15 C-23.33 23.71 -21.27 32.05 -19.27 40.53 C-18.89 42.18 -18.51 43.83 -18.12 45.48 C-17.3 48.99 -16.48 52.51 -15.66 56.02 C-14.37 61.53 -13.08 67.04 -11.8 72.56 C-10.05 80.06 -8.31 87.56 -6.55 95.05 C-3.31 108.96 -0.07 122.86 3.15 136.77 C4.12 140.96 5.1 145.15 6.07 149.34 C6.82 152.52 7.55 155.7 8.29 158.88 C8.42 159.44 8.42 159.44 9.08 162.28 C13.17 180.01 13.17 180.01 9 188 C4.82 192.58 0.03 194.88 -6 196 C-10.54 196.18 -13.91 195.62 -17.88 193.38 C-23.26 187.36 -24.24 179.15 -25.88 171.5 C-26.49 168.71 -27.1 165.93 -27.72 163.14 C-27.89 162.37 -28.06 161.6 -28.24 160.81 C-30.82 149.24 -33.58 137.72 -36.31 126.19 C-36.59 125 -36.87 123.82 -37.16 122.6 C-38.57 116.65 -39.98 110.71 -41.39 104.76 C-42.65 99.49 -43.9 94.22 -45.14 88.94 C-49.96 68.59 -54.85 48.27 -60 28 C-64.68 28.51 -69 29.13 -73.5 30.56 C-75 31.04 -76.5 31.52 -78 32 C-76.72 40.26 -75.09 48.37 -73.16 56.5 C-72.87 57.7 -72.59 58.9 -72.3 60.13 C-71.53 63.4 -70.76 66.68 -69.99 69.95 C-69.16 73.43 -68.34 76.91 -67.52 80.38 C-66.11 86.38 -64.69 92.38 -63.27 98.38 C-61.51 105.85 -59.75 113.32 -57.99 120.79 C-56.16 128.53 -54.33 136.28 -52.5 144.02 C-51.71 147.36 -50.93 150.7 -50.14 154.04 C-49.2 158 -48.27 161.97 -47.33 165.93 C-46.98 167.38 -46.64 168.84 -46.3 170.29 C-44.58 177.6 -42.81 184.9 -40.93 192.17 C-40.78 192.77 -40.78 192.77 -40 195.78 C-37.51 203.78 -33.14 208.49 -26.15 212.91 C-16.65 217.74 -4.26 215.2 5.45 212.32 C15.16 208.7 23.33 202.78 28.31 193.57 C33.56 181.27 31.07 168.06 27.96 155.54 C27.64 154.2 27.32 152.85 27 151.51 C26.34 148.72 25.67 145.94 25 143.16 C24.03 139.15 23.1 135.13 22.18 131.12 C22.03 130.47 21.88 129.83 21.73 129.16 C21.43 127.86 21.13 126.56 20.84 125.26 C20.08 121.97 19.32 118.68 18.56 115.39 C18.25 114.06 17.94 112.73 17.63 111.39 C17.48 110.72 17.32 110.05 17.16 109.37 C15.69 102.99 14.21 96.61 12.74 90.23 C12.58 89.53 12.42 88.83 12.25 88.11 C10.14 78.97 8.05 69.83 5.98 60.68 C5.75 59.67 5.53 58.67 5.29 57.63 C4.27 53.09 3.25 48.55 2.23 44.01 C-0.25 32.94 -3.04 21.96 -6 11 C-10.2 11 -13.24 11.81 -17.25 13 Z " fill="#FFFFFF" transform="translate(316,701)"/>
<path d="M0 0 C8.04 6.78 14.37 15.43 15.39 26.18 C15.49 28.67 15.51 31.15 15.5 33.65 C15.49 34.58 15.49 35.5 15.49 36.46 C15 72.2 15 72.2 11.18 76.02 C3.08 75.88 -5.02 74.95 -13.07 74.02 C-13.43 73.98 -13.43 73.98 -15.27 73.77 C-18.26 73.41 -20.95 72.98 -23.82 72.02 C-23.76 71.2 -23.7 70.38 -23.63 69.54 C-23.41 66.44 -23.18 63.34 -22.96 60.24 C-22.82 58.26 -22.67 56.28 -22.53 54.3 C-22.11 48.46 -21.73 42.62 -21.57 36.76 C-21.54 35.91 -21.51 35.06 -21.49 34.19 C-21.9 31.5 -22.71 30.68 -24.82 29.02 C-27.4 27.73 -29.37 27.82 -32.25 27.77 C-33.22 27.75 -34.19 27.72 -35.19 27.7 C-37.82 28.02 -37.82 28.02 -39.42 29.2 C-46.48 38.39 -44.3 61.86 -45.19 73.02 C-45.57 77.73 -45.96 82.43 -46.34 87.13 C-46.45 88.48 -46.56 89.84 -46.67 91.2 C-47.42 100.36 -48.2 109.51 -49.03 118.67 C-49.13 119.72 -49.22 120.76 -49.32 121.84 C-50.03 129.77 -50.03 129.77 -50.39 133.66 C-51.2 142.29 -51.97 150.92 -52.11 159.6 C-52.12 160.19 -52.12 160.19 -52.17 163.16 C-51.82 166.02 -51.82 166.02 -50.42 167.86 C-47.5 169.97 -45.45 170.24 -41.88 170.34 C-41 170.37 -40.13 170.41 -39.23 170.45 C-36.82 170.02 -36.82 170.02 -35.22 168.38 C-33.49 165.47 -33.24 163.29 -32.94 159.92 C-32.82 158.72 -32.71 157.51 -32.59 156.27 C-32.48 154.99 -32.37 153.71 -32.25 152.4 C-32.01 149.78 -31.76 147.16 -31.51 144.54 C-31.39 143.26 -31.28 141.98 -31.16 140.66 C-30.7 135.84 -30.18 131.02 -29.63 126.21 C-29.47 124.79 -29.31 123.36 -29.15 121.94 C-29.04 120.98 -28.93 120.02 -28.82 119.02 C-24.48 119.33 -20.15 119.65 -15.82 119.96 C-14.6 120.05 -13.37 120.13 -12.12 120.22 C-5.99 120.67 0.1 121.18 6.18 122.02 C7.17 124.99 7.23 126.39 6.98 129.43 C6.91 130.32 6.84 131.2 6.76 132.12 C6.68 133.08 6.6 134.04 6.51 135.03 C6.43 136.02 6.35 137.01 6.26 138.04 C6.08 140.14 5.9 142.25 5.71 144.35 C5.44 147.55 5.18 150.74 4.92 153.94 C4.74 155.99 4.56 158.04 4.39 160.09 C4.31 161.04 4.24 161.98 4.16 162.95 C2.85 177.27 -1.98 189.71 -13.15 199.14 C-24.68 207.28 -39.27 207.41 -52.79 205.56 C-64.42 203.37 -74.45 198.48 -81.82 189.02 C-86.81 180.91 -89.18 172.9 -89.07 163.4 C-89.06 162.55 -89.06 161.69 -89.05 160.81 C-88.88 148.83 -87.87 136.89 -86.93 124.95 C-86.71 122.21 -86.5 119.47 -86.29 116.73 C-85.79 110.27 -85.28 103.8 -84.76 97.34 C-84.24 90.71 -83.73 84.09 -83.22 77.46 C-82.79 71.72 -82.34 65.98 -81.88 60.24 C-81.61 56.83 -81.35 53.42 -81.09 50.02 C-80.8 46.22 -80.5 42.43 -80.19 38.63 C-80.11 37.53 -80.03 36.43 -79.95 35.29 C-78.75 21.32 -74.06 9.34 -63.79 -0.41 C-47.1 -13.64 -16.99 -11.93 0 0 Z M-62.82 11.02 C-71.18 21.13 -71.41 34.86 -72.28 47.39 C-72.4 48.97 -72.52 50.55 -72.64 52.13 C-72.96 56.33 -73.26 60.54 -73.57 64.74 C-73.88 69.09 -74.21 73.44 -74.54 77.8 C-74.6 78.66 -74.67 79.52 -74.73 80.41 C-74.86 82.15 -74.99 83.89 -75.13 85.63 C-75.32 88.23 -75.51 90.83 -75.71 93.42 C-76.45 103.31 -77.23 113.19 -78.09 123.06 C-78.19 124.15 -78.28 125.25 -78.38 126.37 C-78.81 131.24 -79.25 136.12 -79.7 140.99 C-82.7 174.22 -82.7 174.22 -73.82 185.02 C-64.45 194.71 -55.02 196.84 -41.82 198.02 C-41.03 198.1 -40.24 198.17 -39.43 198.25 C-30.05 198.68 -20.98 194.7 -14.13 188.5 C-6.27 180.15 -5.06 169.77 -4.13 158.77 C-4.01 157.55 -3.9 156.33 -3.78 155.07 C-2.99 146.73 -2.38 138.38 -1.82 130.02 C-2.84 129.87 -3.87 129.72 -4.93 129.56 C-7.37 129.19 -9.82 128.83 -12.27 128.46 C-15.18 128.1 -17.89 127.85 -20.82 128.02 C-22.33 129.53 -22.1 130.98 -22.28 133.08 C-22.36 133.93 -22.43 134.79 -22.51 135.67 C-22.55 136.13 -22.55 136.13 -22.75 138.46 C-22.93 140.38 -23.11 142.3 -23.29 144.21 C-23.55 147.03 -23.8 149.85 -24.04 152.67 C-24.24 155.08 -24.46 157.49 -24.69 159.9 C-24.75 160.62 -24.8 161.33 -24.86 162.07 C-25.46 168.26 -27.25 172.91 -32.14 176.93 C-38.04 179.34 -45.32 179.01 -51.4 177.3 C-55.56 175.39 -58.02 173.35 -59.82 169.02 C-60.96 164.75 -60.81 160.73 -60.52 156.36 C-60.47 155.59 -60.42 154.81 -60.37 154.01 C-59.63 142.52 -58.62 131.05 -57.64 119.57 C-57.53 118.34 -57.43 117.11 -57.32 115.84 C-56.76 109.34 -56.2 102.84 -55.63 96.34 C-55.11 90.32 -54.6 84.29 -54.09 78.26 C-53.6 72.42 -53.09 66.58 -52.58 60.74 C-52.37 58.27 -52.16 55.8 -51.95 53.33 C-51.67 49.88 -51.37 46.44 -51.06 43 C-51.02 42.49 -51.02 42.49 -50.81 39.93 C-50.21 33.34 -49.18 28.04 -45 22.71 C-39.4 18.38 -33.6 18.83 -26.89 19.48 C-22.8 20.2 -20.89 21.28 -17.82 24.02 C-17.24 24.46 -16.66 24.89 -16.07 25.34 C-12.53 30.11 -12.64 35.79 -13.09 41.45 C-13.14 42.13 -13.19 42.8 -13.24 43.5 C-13.4 45.63 -13.58 47.77 -13.75 49.9 C-13.92 52.05 -14.09 54.21 -14.25 56.36 C-14.4 58.3 -14.56 60.24 -14.71 62.18 C-14.75 63.12 -14.78 64.06 -14.82 65.02 C-13.3 66.54 -11.89 66.24 -9.78 66.34 C-8.97 66.38 -8.16 66.42 -7.33 66.47 C-6.48 66.51 -5.63 66.55 -4.75 66.59 C-4.33 66.61 -4.33 66.61 -2.17 66.72 C-0.05 66.82 2.07 66.92 4.18 67.02 C9.91 26.5 9.91 26.5 1.75 13.79 C-4.2 6.2 -12.15 2.18 -21.57 0.65 C-37.27 -1 -51.55 -1.48 -62.82 11.02 Z " fill="#FFFFFF" transform="translate(1009.81640625,673.9765625)"/>
<path d="M0 0 C13.15 11.17 14.5 27.76 17.1 43.79 C17.18 44.25 17.18 44.25 17.57 46.61 C18.01 49.29 18.43 51.98 18.85 54.66 C18.92 55.06 18.92 55.06 19.24 57.09 C20.92 68.28 20.52 79.19 13.98 88.85 C13.72 89.19 13.72 89.19 12.41 90.95 C11.1 92.79 11.1 92.79 10.1 95.79 C10.78 95.95 11.46 96.12 12.16 96.29 C19.57 100.07 23.35 107.23 26.1 114.79 C27.3 119.45 28.18 124.15 29.05 128.88 C29.3 130.24 29.56 131.61 29.82 132.97 C30.36 135.81 30.89 138.66 31.42 141.5 C32.09 145.1 32.77 148.7 33.45 152.29 C33.99 155.11 34.51 157.92 35.04 160.73 C35.41 162.69 35.78 164.64 36.15 166.6 C37.81 175.63 39.05 184.67 40.1 193.79 C35.76 194.79 31.42 195.78 27.08 196.78 C25.6 197.11 24.12 197.45 22.65 197.79 C20.52 198.29 18.4 198.77 16.27 199.25 C15 199.55 13.72 199.84 12.4 200.14 C9.1 200.79 9.1 200.79 5.1 200.79 C2.97 192.69 1.26 184.6 -0.15 176.35 C-0.58 173.91 -1.01 171.47 -1.45 169.04 C-2.22 164.68 -2.98 160.32 -3.73 155.96 C-4.45 151.75 -5.2 147.54 -5.96 143.34 C-6.25 141.69 -6.54 140.03 -6.82 138.38 C-7.21 136.04 -7.63 133.71 -8.05 131.38 C-8.17 130.69 -8.28 129.99 -8.39 129.28 C-9.32 124.4 -11.06 121.9 -14.9 118.79 C-17.11 118.48 -17.11 118.48 -19.27 118.91 C-19.63 118.97 -19.63 118.97 -21.42 119.29 C-22.24 119.46 -23.06 119.62 -23.9 119.79 C-26.23 120.12 -28.56 120.46 -30.9 120.79 C-30.84 121.09 -30.84 121.09 -30.52 122.62 C-27.26 138.68 -24.18 154.77 -21.25 170.9 C-20.57 174.6 -19.89 178.31 -19.21 182.02 C-18.78 184.39 -18.34 186.77 -17.91 189.14 C-17.71 190.24 -17.5 191.34 -17.29 192.47 C-17.11 193.49 -16.93 194.51 -16.74 195.57 C-16.57 196.46 -16.41 197.35 -16.24 198.26 C-15.9 200.8 -15.84 203.22 -15.9 205.79 C-19.9 206.79 -23.9 207.79 -27.9 208.78 C-29.26 209.11 -30.62 209.45 -31.98 209.79 C-33.94 210.29 -35.91 210.77 -37.87 211.25 C-39.05 211.55 -40.23 211.84 -41.44 212.14 C-45.01 212.81 -48.28 212.9 -51.9 212.79 C-53.05 206.43 -54.19 200.08 -55.34 193.72 C-55.53 192.67 -55.71 191.62 -55.91 190.54 C-58.74 174.82 -61.56 159.09 -64.36 143.36 C-65.81 135.23 -67.27 127.1 -68.72 118.97 C-69.27 115.85 -69.83 112.73 -70.39 109.61 C-74.01 89.27 -77.65 68.94 -81.48 48.64 C-81.61 47.93 -81.75 47.21 -81.88 46.48 C-83.22 39.38 -84.57 32.29 -85.94 25.2 C-86.36 23.01 -86.77 20.83 -87.19 18.64 C-87.28 18.16 -87.28 18.16 -87.77 15.7 C-87.85 15.26 -87.85 15.26 -88.27 13.03 C-88.42 12.28 -88.56 11.52 -88.72 10.75 C-88.9 8.79 -88.9 8.79 -87.9 5.79 C-85.48 4.9 -85.48 4.9 -82.22 4.17 C-81.02 3.9 -79.81 3.62 -78.56 3.34 C-77.24 3.05 -75.91 2.76 -74.59 2.47 C-73.23 2.17 -71.87 1.87 -70.52 1.56 C-67.71 0.94 -64.91 0.32 -62.1 -0.29 C-58.1 -1.17 -54.12 -2.08 -50.13 -3 C-47.7 -3.55 -45.27 -4.1 -42.84 -4.65 C-41.73 -4.91 -40.62 -5.17 -39.48 -5.44 C-25.41 -8.53 -12.05 -8.66 0 0 Z M-30.79 1.67 C-31.27 1.77 -31.27 1.77 -33.66 2.26 C-34.66 2.47 -35.67 2.68 -36.71 2.9 C-37.76 3.12 -38.8 3.34 -39.88 3.56 C-42.09 4.02 -44.3 4.48 -46.51 4.95 C-49.88 5.66 -53.26 6.36 -56.64 7.05 C-58.79 7.5 -60.94 7.95 -63.09 8.4 C-64.09 8.61 -65.1 8.82 -66.14 9.03 C-67.09 9.23 -68.03 9.43 -69 9.64 C-69.42 9.73 -69.42 9.73 -71.51 10.17 C-74.08 10.83 -76.45 11.75 -78.9 12.79 C-76.39 28.28 -73.78 43.74 -70.88 59.16 C-70.75 59.85 -70.62 60.54 -70.49 61.25 C-69.82 64.81 -69.15 68.38 -68.48 71.94 C-64.12 95.04 -59.9 118.16 -56.02 141.35 C-53.58 155.94 -51.12 170.53 -48.42 185.08 C-48.12 186.7 -47.82 188.32 -47.52 189.94 C-47.13 192.11 -46.72 194.29 -46.31 196.46 C-46.08 197.66 -45.86 198.87 -45.63 200.12 C-45.39 201 -45.15 201.88 -44.9 202.79 C-41.59 204.44 -38.27 202.81 -34.84 201.91 C-34.09 201.72 -33.34 201.54 -32.58 201.34 C-27.04 199.93 -27.04 199.93 -25.9 198.79 C-26.01 189.56 -27.9 180.45 -29.59 171.42 C-29.85 169.98 -30.12 168.53 -30.38 167.08 C-31.07 163.31 -31.77 159.54 -32.47 155.77 C-33.59 149.73 -34.7 143.68 -35.82 137.63 C-36.2 135.53 -36.59 133.43 -36.98 131.33 C-37.22 130.05 -37.46 128.77 -37.7 127.45 C-37.91 126.33 -38.12 125.21 -38.33 124.05 C-38.92 120.64 -39.43 117.22 -39.9 113.79 C-39.34 113.74 -38.78 113.69 -38.21 113.64 C-34.35 113.26 -30.69 112.8 -26.96 111.72 C-21.05 110.17 -15.31 109.94 -9.52 111.97 C-3.96 115.81 -2.18 120.13 -0.94 126.59 C-0.78 127.36 -0.62 128.14 -0.45 128.94 C0.09 131.55 0.6 134.17 1.1 136.79 C1.28 137.72 1.47 138.66 1.66 139.62 C3.25 147.8 4.79 155.98 6.33 164.17 C6.91 167.26 7.49 170.36 8.08 173.45 C8.25 174.39 8.43 175.32 8.61 176.29 C9.54 181.21 10.63 185.99 12.1 190.79 C18.55 190.27 24.04 189.01 30.1 186.79 C29.52 178.85 28.4 171.11 26.96 163.29 C26.85 162.71 26.85 162.71 26.32 159.78 C25.87 157.35 25.42 154.92 24.97 152.49 C24.29 148.8 23.62 145.1 22.96 141.41 C22.52 139.03 22.08 136.66 21.64 134.29 C21.45 133.2 21.25 132.11 21.05 130.98 C19.04 120.3 16.64 110.12 8.1 102.79 C3.92 100.05 0.01 98.66 -4.9 97.79 C-4.23 97.25 -3.57 96.72 -2.89 96.17 C4.22 90.17 8.17 84.57 11.1 75.79 C11.81 65.11 10.53 54.84 8.76 44.34 C8.35 41.89 7.97 39.45 7.59 37 C6.32 29.13 5.06 21.82 1.1 14.79 C0.54 13.73 -0.01 12.68 -0.59 11.6 C-5.89 5.14 -12.62 1.66 -20.9 0.79 C-24.34 0.68 -27.42 0.97 -30.79 1.67 Z " fill="#FFFFFF" transform="translate(451.8984375,685.21484375)"/>
<path d="M0 0 C3.62 2.33 5.89 4.97 7.81 8.81 C10.56 26.85 -10.95 49.85 -20.99 63.52 C-31.72 77.99 -43.2 91.73 -55.49 104.89 C-57.59 107.16 -59.62 109.46 -61.62 111.81 C-66.34 117.27 -71.57 122.27 -76.69 127.34 C-79.94 130.55 -83.16 133.78 -86.35 137.05 C-112.09 163.27 -112.09 163.27 -122.44 164.06 C-127.82 163.7 -130.88 162.26 -134.5 158.25 C-137.63 153.73 -137.78 150.22 -137.19 144.81 C-135.23 137.75 -129.98 133.01 -124.19 128.81 C-123.53 128.81 -122.87 128.81 -122.19 128.81 C-121.86 127.82 -121.53 126.83 -121.19 125.81 C-119.67 124.47 -118.09 123.2 -116.48 121.97 C-109.95 116.75 -104.09 110.98 -98.21 105.04 C-96.43 103.24 -94.65 101.46 -92.86 99.67 C-86.55 93.34 -80.34 86.99 -74.74 80.01 C-73.59 78.58 -72.39 77.19 -71.19 75.81 C-70.53 75.81 -69.87 75.81 -69.19 75.81 C-68.91 75.22 -68.63 74.63 -68.35 74.01 C-67.26 71.95 -66.14 70.36 -64.64 68.59 C-64.39 68.28 -64.39 68.28 -63.1 66.74 C-62.55 66.08 -62 65.43 -61.44 64.75 C-49.13 49.81 -37.59 34.13 -27.6 17.54 C-27.16 16.82 -26.73 16.11 -26.28 15.37 C-25.46 14.01 -24.65 12.64 -23.85 11.26 C-18.43 2.27 -10.94 -4.08 0 0 Z " fill="#B28920" transform="translate(890.1875,415.1875)"/>
<path d="M0 0 C3.7 3.37 6.73 7.08 9.75 11.06 C10.18 11.63 10.61 12.2 11.06 12.78 C14.63 17.48 18.16 22.21 21.7 26.94 C24.65 30.86 27.64 34.75 30.64 38.64 C31.76 40.09 32.88 41.54 34 43 C34.59 43.74 35.18 44.49 35.79 45.25 C37 47 37 47 37 49 C37.66 49 38.32 49 39 49 C40.54 50.97 41.97 52.94 43.38 55 C44.28 56.29 45.18 57.58 46.09 58.87 C46.56 59.55 47.04 60.23 47.53 60.93 C49.96 64.35 52.47 67.71 55 71.06 C55.51 71.74 56.01 72.41 56.54 73.11 C60.47 78.32 64.45 83.49 68.44 88.66 C79.9 103.57 90.96 118.78 102 134 C100.45 137.88 98 140.03 94.88 142.75 C94.42 143.15 94.42 143.15 92.12 145.17 C91.42 145.78 90.72 146.38 90 147 C85.91 145.48 83.87 142.59 81.38 139.19 C80.5 138.02 79.62 136.85 78.74 135.68 C78.29 135.08 77.84 134.47 77.38 133.85 C75.12 130.82 72.85 127.82 70.56 124.81 C70.15 124.26 69.74 123.71 69.31 123.14 C66.43 119.35 64.53 117.23 59.67 116.51 C58.38 116.38 57.08 116.26 55.75 116.12 C50 115.44 45.52 114.74 41 111 C40.24 110.38 39.47 109.76 38.68 109.12 C32.31 103.68 27.17 97.57 22 91 C19.93 88.43 17.84 85.87 15.75 83.31 C14.63 81.94 13.52 80.56 12.4 79.19 C10.15 76.41 7.89 73.64 5.63 70.88 C-1.06 62.69 -7.61 54.42 -14 46 C-14.83 44.92 -15.65 43.85 -16.48 42.77 C-18.69 39.87 -20.86 36.95 -23 34 C-23.48 33.34 -23.96 32.69 -24.45 32.01 C-26.95 28.2 -27.73 24.74 -27.52 20.27 C-25.84 12.87 -18.86 7.52 -12.83 3.59 C-4.97 -1.13 -4.97 -1.13 0 0 Z " fill="#B88E21" transform="translate(672,394)"/>
<path d="M0 0 C0.88 -0.01 1.77 -0.01 2.68 -0.02 C5.58 -0.03 8.49 -0.01 11.4 0.01 C13.43 0.01 15.46 0 17.49 0 C21.74 -0 25.99 0.01 30.24 0.04 C35.68 0.06 41.11 0.06 46.54 0.05 C50.73 0.04 54.93 0.05 59.12 0.06 C61.12 0.07 63.13 0.07 65.13 0.06 C67.93 0.06 70.74 0.08 73.55 0.1 C73.96 0.1 73.96 0.1 76.02 0.08 C81.08 0.15 85.24 1.03 89.98 2.82 C93.16 3.95 96.3 3.92 99.64 4 C102.74 4.69 103.73 6.19 105.9 8.5 C106.75 9.37 107.59 10.24 108.46 11.13 C117.77 21.77 117.09 32.34 116.53 45.88 C116.48 47.98 116.43 50.08 116.39 52.19 C116.28 57.3 116.11 62.4 115.9 67.5 C113.92 67.5 111.94 67.5 109.9 67.5 C108.7 65.11 108.78 63.63 108.79 60.96 C108.79 60.49 108.79 60.49 108.79 58.11 C108.79 57.6 108.79 57.6 108.81 55.03 C108.81 53.98 108.81 52.94 108.81 51.87 C108.82 48.54 108.83 45.21 108.84 41.88 C108.85 39.62 108.85 37.37 108.85 35.11 C108.87 29.57 108.88 24.04 108.9 18.5 C106.92 18.5 104.94 18.5 102.9 18.5 C102.91 19.1 102.91 19.7 102.91 20.32 C102.93 26.53 102.95 32.74 102.96 38.95 C102.96 41.28 102.97 43.6 102.98 45.92 C102.99 49.25 103 52.58 103 55.9 C103.01 56.95 103.01 57.99 103.02 59.07 C103.02 60.03 103.02 60.99 103.02 61.98 C103.02 62.83 103.02 63.68 103.02 64.56 C102.9 66.5 102.9 66.5 101.9 67.5 C99.92 67.5 97.94 67.5 95.9 67.5 C95.57 51.66 95.24 35.82 94.9 19.5 C93.25 19.5 91.6 19.5 89.9 19.5 C89.57 35.34 89.24 51.18 88.9 67.5 C86.92 67.5 84.94 67.5 82.9 67.5 C82.57 51.66 82.24 35.82 81.9 19.5 C79.92 19.17 77.94 18.84 75.9 18.5 C75.9 34.67 75.9 50.84 75.9 67.5 C73.59 67.5 71.28 67.5 68.9 67.5 C68.57 51.66 68.24 35.82 67.9 19.5 C66.25 19.5 64.6 19.5 62.9 19.5 C62.57 35.34 62.24 51.18 61.9 67.5 C59.92 67.5 57.94 67.5 55.9 67.5 C54.96 64.67 54.78 62.96 54.79 60.03 C54.79 59.58 54.79 59.58 54.79 57.3 C54.79 56.33 54.8 55.36 54.81 54.36 C54.81 53.37 54.81 52.38 54.81 51.35 C54.82 48.17 54.83 44.99 54.84 41.81 C54.85 39.66 54.85 37.51 54.85 35.35 C54.87 30.07 54.88 24.78 54.9 19.5 C52.92 19.17 50.94 18.84 48.9 18.5 C48.91 19.1 48.91 19.7 48.91 20.32 C48.93 26.53 48.95 32.74 48.96 38.95 C48.96 41.28 48.97 43.6 48.98 45.92 C48.99 49.25 49 52.58 49 55.9 C49.01 56.95 49.01 57.99 49.02 59.07 C49.02 60.03 49.02 60.99 49.02 61.98 C49.02 62.83 49.02 63.68 49.02 64.56 C48.9 66.5 48.9 66.5 47.9 67.5 C45.4 67.63 45.4 67.63 42.9 67.5 C41.9 66.5 41.9 66.5 41.78 64.56 C41.78 63.71 41.79 62.86 41.79 61.98 C41.79 61.02 41.79 60.06 41.79 59.07 C41.79 58.03 41.8 56.98 41.81 55.9 C41.81 54.84 41.81 53.78 41.81 52.68 C41.82 49.27 41.83 45.85 41.84 42.44 C41.85 40.13 41.85 37.82 41.85 35.52 C41.87 29.84 41.88 24.17 41.9 18.5 C40.91 18.67 40.91 18.67 35.9 19.5 C35.57 35.34 35.24 51.18 34.9 67.5 C32.92 67.5 30.94 67.5 28.9 67.5 C28.16 51.16 27.75 34.86 27.9 18.5 C25.92 18.5 23.94 18.5 21.9 18.5 C21.91 19.1 21.91 19.7 21.91 20.32 C21.93 26.53 21.95 32.74 21.96 38.95 C21.96 41.28 21.97 43.6 21.98 45.92 C21.99 49.25 22 52.58 22 55.9 C22.01 56.95 22.01 57.99 22.02 59.07 C22.02 60.03 22.02 60.99 22.02 61.98 C22.02 62.83 22.02 63.68 22.02 64.56 C21.9 66.5 21.9 66.5 20.9 67.5 C18.92 67.5 16.94 67.5 14.9 67.5 C14.57 51.66 14.24 35.82 13.9 19.5 C12.25 19.5 10.6 19.5 8.9 19.5 C8.57 35.34 8.24 51.18 7.9 67.5 C5.92 67.5 3.94 67.5 1.9 67.5 C1.76 62.43 1.62 57.37 1.48 52.3 C1.43 50.58 1.38 48.86 1.33 47.14 C1.07 37.93 0.81 28.72 0.9 19.5 C-1.08 19.5 -3.06 19.5 -5.1 19.5 C-5.43 35.34 -5.76 51.18 -6.1 67.5 C-14.17 66.35 -14.17 66.35 -18.1 61.5 C-19.06 58.61 -19.23 56.75 -19.26 53.74 C-19.27 52.78 -19.28 51.81 -19.29 50.82 C-19.29 49.78 -19.3 48.74 -19.3 47.67 C-19.31 46.59 -19.31 45.52 -19.32 44.42 C-19.33 42.15 -19.33 39.88 -19.34 37.61 C-19.35 34.15 -19.38 30.68 -19.41 27.21 C-19.42 25.01 -19.42 22.81 -19.43 20.6 C-19.44 19.57 -19.45 18.53 -19.46 17.46 C-19.43 8.08 -19.43 8.08 -16.1 4.5 C-10.57 0.7 -6.63 -0.08 0 0 Z " fill="#FFFFFF" transform="translate(631.09716796875,511.498291015625)"/>
<path d="M0 0 C0.42 0 0.42 0 2.55 0 C5.24 0.01 7.93 0.02 10.62 0.04 C12.44 0.04 14.26 0.04 16.08 0.05 C20.55 0.06 25.02 0.08 29.49 0.1 C32.51 16.26 35.2 32.46 37.76 48.7 C38.16 51.24 38.56 53.78 38.96 56.31 C39.91 62.29 40.85 68.27 41.79 74.24 C42.93 81.51 44.08 88.77 45.23 96.03 C47.46 110.15 49.69 124.27 51.91 138.38 C52.3 140.85 52.69 143.32 53.07 145.79 C54.18 152.84 55.29 159.9 56.4 166.95 C56.74 169.08 57.07 171.2 57.41 173.33 C58.3 179.01 59.19 184.68 60.07 190.36 C60.51 193.22 60.96 196.07 61.42 198.93 C61.7 200.77 61.99 202.62 62.28 204.47 C62.35 204.89 62.35 204.89 62.7 207.06 C63 209.07 63.25 211.08 63.49 213.1 C62.49 214.1 62.49 214.1 59.17 214.21 C57.69 214.21 56.21 214.21 54.74 214.2 C53.96 214.19 53.19 214.19 52.39 214.19 C49.9 214.19 47.42 214.17 44.93 214.16 C43.25 214.16 41.57 214.15 39.88 214.15 C35.75 214.14 31.62 214.12 27.49 214.1 C26.79 210.03 26.1 205.96 25.41 201.88 C25.18 200.5 24.94 199.12 24.7 197.74 C24.36 195.74 24.02 193.74 23.68 191.73 C23.48 190.54 23.28 189.34 23.06 188.1 C22.35 183.12 21.95 178.11 21.49 173.1 C13.9 173.43 6.31 173.76 -1.51 174.1 C-1.85 176.55 -2.18 179.01 -2.53 181.54 C-2.86 183.94 -3.2 186.33 -3.53 188.72 C-3.77 190.38 -3.99 192.03 -4.22 193.69 C-4.55 196.08 -4.88 198.47 -5.22 200.86 C-5.32 201.59 -5.42 202.32 -5.52 203.08 C-6.13 207.39 -7.11 210.9 -8.51 215.1 C-20.06 215.1 -31.61 215.1 -43.51 215.1 C-40 191.11 -36.41 167.14 -32.74 143.18 C-32.31 140.43 -31.89 137.67 -31.47 134.91 C-27.78 110.83 -24.08 86.76 -20.32 62.69 C-20.02 60.77 -19.72 58.85 -19.42 56.93 C-18.5 51.05 -17.57 45.16 -16.64 39.28 C-15.92 34.75 -15.22 30.21 -14.53 25.68 C-14.08 22.78 -13.63 19.88 -13.18 16.98 C-12.96 15.58 -12.75 14.18 -12.54 12.78 C-12.25 10.84 -11.94 8.91 -11.64 6.97 C-11.55 6.41 -11.55 6.41 -11.12 3.6 C-10.92 2.78 -10.72 1.95 -10.51 1.1 C-7.23 -0.54 -3.6 -0.02 0 0 Z M5.05 8.54 C4.34 8.57 3.62 8.61 2.88 8.65 C-2.39 8.98 -2.39 8.98 -3.51 10.1 C-3.82 11.66 -4.08 13.24 -4.32 14.82 C-4.48 15.84 -4.63 16.86 -4.79 17.9 C-4.96 19.03 -5.12 20.15 -5.29 21.31 C-5.47 22.48 -5.65 23.65 -5.83 24.85 C-6.31 28.05 -6.79 31.26 -7.27 34.46 C-8.08 39.9 -8.91 45.33 -9.73 50.76 C-10.04 52.85 -10.36 54.93 -10.67 57.02 C-12.57 69.57 -14.53 82.12 -16.51 94.66 C-17.16 98.8 -17.81 102.94 -18.46 107.07 C-18.62 108.11 -18.79 109.15 -18.96 110.22 C-20.87 122.4 -22.78 134.59 -24.67 146.78 C-25.05 149.22 -25.44 151.67 -25.82 154.12 C-27.88 167.32 -29.9 180.53 -31.84 193.76 C-31.93 194.37 -31.93 194.37 -32.39 197.46 C-32.55 198.57 -32.71 199.69 -32.88 200.84 C-33.03 201.84 -33.17 202.83 -33.32 203.85 C-33.35 204.22 -33.35 204.22 -33.51 206.1 C-31.47 208.14 -27.37 207.28 -24.57 207.29 C-23.83 207.3 -23.09 207.31 -22.32 207.32 C-20.38 207.33 -18.44 207.22 -16.51 207.1 C-13.74 204.33 -13.74 201.4 -13.22 197.68 C-13.11 196.94 -13 196.2 -12.89 195.44 C-12.66 193.88 -12.44 192.31 -12.22 190.75 C-11.89 188.37 -11.54 185.99 -11.19 183.61 C-10.97 182.09 -10.75 180.57 -10.53 179.05 C-10.43 178.34 -10.33 177.64 -10.22 176.91 C-9.67 172.94 -9.41 169.1 -9.51 165.1 C-8.89 165.1 -8.27 165.11 -7.63 165.11 C4.46 165.2 16.44 165.16 28.49 164.1 C28.54 164.53 28.54 164.53 28.79 166.72 C30.32 179.57 32.39 192.33 34.49 205.1 C38.74 206.19 42.45 206.03 46.8 205.66 C47.43 205.61 47.43 205.61 50.61 205.35 C51.56 205.27 52.51 205.18 53.49 205.1 C50.33 182.52 46.98 159.98 43.41 137.46 C42.92 134.39 42.44 131.32 41.96 128.26 C39.23 110.95 36.48 93.64 33.64 76.35 C32.18 67.48 30.79 58.59 29.43 49.7 C29.06 47.33 28.7 44.97 28.33 42.6 C27.62 37.97 26.91 33.33 26.21 28.69 C25.88 26.58 25.55 24.46 25.23 22.34 C25.08 21.37 24.94 20.39 24.79 19.38 C24.64 18.48 24.5 17.58 24.36 16.65 C24.24 15.86 24.12 15.08 24 14.27 C23.46 11.98 22.62 10.15 21.49 8.1 C15.99 8.05 10.54 8.19 5.05 8.54 Z " fill="#FFFFFF" transform="translate(691.5078125,651.90234375)"/>
<path d="M0 0 C2.25 0.39 4.42 0.87 6.64 1.41 C7.38 1.58 8.11 1.76 8.87 1.94 C21.22 4.97 33.45 8.49 45.69 11.92 C48.44 12.69 51.2 13.46 53.95 14.23 C56.65 14.98 59.35 15.73 62.05 16.49 C63.92 17.01 65.79 17.54 67.66 18.06 C75.48 20.25 83.25 22.58 91 25 C90.39 32.77 88.61 39.99 86.56 47.5 C86.25 48.69 85.94 49.88 85.62 51.11 C85.31 52.24 85.01 53.37 84.69 54.53 C84.41 55.56 84.14 56.58 83.85 57.64 C83 60 83 60 81 61 C78.6 60.47 78.6 60.47 75.62 59.57 C74.56 59.25 73.49 58.93 72.39 58.6 C71.83 58.43 71.83 58.43 69 57.56 C66.79 56.89 64.58 56.23 62.38 55.57 C61.39 55.27 60.41 54.97 59.4 54.66 C57 54 57 54 55 54 C54.92 54.35 54.92 54.35 54.49 56.1 C52.35 64.97 50.21 73.83 48.06 82.69 C47.89 83.4 47.72 84.11 47.54 84.85 C43.52 101.49 39.49 118.12 35.44 134.75 C31.78 149.75 28.15 164.76 24.52 179.78 C23.89 182.4 23.25 185.03 22.62 187.66 C21.72 191.35 20.83 195.04 19.94 198.73 C19.67 199.84 19.41 200.94 19.13 202.08 C18 206.78 16.89 211.48 15.88 216.2 C15 220 15 220 14 221 C6.36 220.55 -0.67 218.61 -8 216.5 C-9.14 216.18 -10.29 215.86 -11.46 215.53 C-19.86 213.14 -19.86 213.14 -21 212 C-20.51 203.17 -18.16 194.66 -16.1 186.1 C-15.7 184.43 -15.3 182.76 -14.91 181.1 C-13.85 176.66 -12.79 172.23 -11.72 167.8 C-10.62 163.22 -9.53 158.64 -8.43 154.05 C-6.72 146.88 -5.01 139.71 -3.29 132.55 C-1.45 124.89 0.38 117.23 2.2 109.57 C2.31 109.1 2.31 109.1 2.87 106.76 C3.48 104.21 4.08 101.67 4.69 99.12 C5.25 96.76 5.81 94.4 6.37 92.04 C6.73 90.56 7.08 89.08 7.43 87.59 C8.54 82.92 9.66 78.26 10.77 73.59 C11.55 70.36 12.31 67.14 13.08 63.91 C13.44 62.41 13.8 60.91 14.16 59.42 C14.64 57.4 15.12 55.37 15.6 53.35 C15.74 52.78 15.74 52.78 16.42 49.91 C17 47 17 47 17 43 C16.25 42.8 15.5 42.61 14.72 42.41 C11.33 41.51 7.95 40.6 4.56 39.69 C3.97 39.53 3.97 39.53 0.97 38.75 C-0.15 38.45 -1.27 38.14 -2.43 37.82 C-2.95 37.69 -2.95 37.69 -5.59 36.98 C-6.39 36.66 -7.18 36.33 -8 36 C-9.28 32.17 -8.36 29.51 -7.38 25.74 C-7.29 25.39 -7.29 25.39 -6.85 23.61 C-6.47 22.12 -6.09 20.64 -5.71 19.16 C-5.13 16.88 -4.55 14.6 -3.98 12.32 C-3.62 10.87 -3.25 9.43 -2.88 7.99 C-2.71 7.31 -2.54 6.62 -2.36 5.92 C-1.12 1.12 -1.12 1.12 0 0 Z M6 11 C4.17 16.97 2.46 22.93 1 29 C6.53 31.56 12.04 33.2 17.94 34.69 C18.37 34.8 18.37 34.8 20.59 35.37 C22.72 35.92 24.86 36.46 27 37 C26.43 44.79 24.61 52.19 22.71 59.74 C21.68 63.85 20.66 67.97 19.65 72.08 C19.54 72.52 19.54 72.52 19 74.74 C16.44 85.22 14.07 95.73 11.69 106.25 C7.38 125.25 2.84 144.18 -1.85 163.08 C-3.25 168.72 -4.63 174.36 -6 180 C-6.25 181.01 -6.49 182.01 -6.75 183.05 C-7.48 186.07 -8.2 189.09 -8.91 192.12 C-9.14 193.04 -9.36 193.96 -9.6 194.9 C-11.42 202.75 -11.42 202.75 -10 207 C-7.75 207.67 -5.5 208.34 -3.25 209 C-2.62 209.19 -2.62 209.19 0.55 210.12 C4 211 4 211 8 211 C14.82 184.03 21.36 157 27.81 129.95 C29.8 121.63 31.79 113.32 33.78 105 C34.5 101.99 35.21 98.98 35.93 95.97 C38.1 86.9 40.28 77.83 42.5 68.77 C42.69 67.99 42.88 67.2 43.08 66.39 C43.96 62.78 44.85 59.17 45.74 55.56 C46.04 54.33 46.34 53.1 46.65 51.83 C46.91 50.77 47.18 49.71 47.45 48.61 C48 46 48 46 48 43 C48.71 43.21 49.41 43.41 50.14 43.63 C53.34 44.56 56.55 45.5 59.75 46.44 C60.86 46.76 61.97 47.09 63.12 47.42 C64.19 47.74 65.26 48.05 66.36 48.37 C67.34 48.66 68.33 48.95 69.34 49.24 C71.55 49.87 73.77 50.46 76 51 C78.43 44.43 79.9 37.92 81 31 C75.09 28.97 69.17 27.15 63.14 25.51 C62.33 25.29 61.51 25.06 60.67 24.83 C58.05 24.12 55.43 23.4 52.81 22.69 C51.01 22.2 49.21 21.7 47.41 21.21 C44.73 20.48 42.06 19.75 39.38 19.02 C34.46 17.68 29.54 16.32 24.62 14.95 C24.11 14.8 24.11 14.8 21.53 14.09 C19.74 13.59 17.94 13.08 16.14 12.57 C12.6 11.6 9.7 11 6 11 Z " fill="#FFFFFF" transform="translate(1210,706)"/>
<path d="M0 0 C16.35 14.4 15.54 36.75 16.87 56.84 C17.48 68.11 16.77 76.89 10.47 86.56 C9.16 88.59 8.06 90.61 7.03 92.79 C8.06 93.53 9.09 94.27 10.16 95.04 C22.05 105.29 22.29 122.37 23.66 136.85 C23.72 137.53 23.79 138.21 23.85 138.92 C27.25 175.21 27.25 175.21 16.72 189.76 C2.96 206.29 -17.98 206.87 -37.9 209.21 C-40.76 209.54 -43.61 209.89 -46.47 210.25 C-48.3 210.46 -50.12 210.68 -51.95 210.9 C-52.8 211 -53.65 211.11 -54.52 211.22 C-54.92 211.26 -54.92 211.26 -56.91 211.49 C-57.6 211.57 -58.29 211.66 -59 211.74 C-61.16 211.79 -62.91 211.4 -64.97 210.79 C-67.14 191.06 -69.16 171.32 -70.84 151.54 C-70.92 150.61 -71 149.68 -71.08 148.72 C-71.16 147.77 -71.25 146.82 -71.33 145.85 C-72.74 129.36 -74.21 112.89 -75.71 96.41 C-75.91 94.3 -76.1 92.18 -76.29 90.07 C-77.66 74.98 -79.05 59.89 -80.46 44.81 C-80.7 42.3 -80.94 39.79 -81.17 37.28 C-81.61 32.6 -82.05 27.93 -82.5 23.25 C-82.69 21.15 -82.89 19.06 -83.09 16.96 C-83.18 16.03 -83.27 15.09 -83.36 14.13 C-83.81 9.33 -84.16 4.61 -83.97 -0.21 C-82.36 -1.82 -80.49 -1.61 -78.27 -1.88 C-77.27 -2 -76.27 -2.12 -75.24 -2.24 C-74.14 -2.37 -73.05 -2.49 -71.92 -2.62 C-71.36 -2.69 -71.36 -2.69 -68.51 -3.02 C-66.12 -3.3 -63.73 -3.58 -61.34 -3.85 C-57.71 -4.27 -54.08 -4.7 -50.46 -5.13 C-48.13 -5.4 -45.81 -5.67 -43.48 -5.93 C-42.41 -6.06 -41.34 -6.19 -40.23 -6.32 C-26.24 -7.9 -11.9 -8.75 0 0 Z M-55.53 4.29 C-57.33 4.53 -59.13 4.77 -60.94 5.01 C-65.28 5.59 -69.63 6.19 -73.97 6.79 C-75.11 10.31 -74.91 13.25 -74.58 16.92 C-74.47 18.18 -74.35 19.44 -74.24 20.73 C-74.11 22.13 -73.98 23.52 -73.84 24.92 C-73.71 26.39 -73.58 27.86 -73.45 29.33 C-73.08 33.33 -72.71 37.34 -72.34 41.34 C-71.95 45.56 -71.57 49.79 -71.18 54.01 C-70.45 62.05 -69.72 70.09 -68.98 78.13 C-67.9 89.79 -66.84 101.45 -65.77 113.11 C-65.61 114.86 -65.45 116.61 -65.3 118.36 C-65.22 119.22 -65.14 120.07 -65.06 120.96 C-64.6 125.94 -64.15 130.93 -63.69 135.91 C-63.4 139.06 -63.11 142.2 -62.82 145.34 C-62.68 146.87 -62.54 148.4 -62.4 149.92 C-61.61 158.56 -60.84 167.2 -60.13 175.85 C-60.06 176.67 -59.99 177.49 -59.92 178.33 C-59.59 182.27 -59.27 186.21 -58.95 190.15 C-58.84 191.55 -58.72 192.94 -58.6 194.34 C-58.5 195.57 -58.41 196.79 -58.3 198.05 C-57.97 200.79 -57.97 200.79 -56.97 201.79 C-47.02 201.87 -37.02 200.43 -27.17 199.23 C-25.8 199.06 -24.43 198.9 -23.06 198.74 C-11.6 197.42 -0.4 195.29 8.03 186.79 C14 178.64 16.4 171.3 16.34 161.29 C16.34 160.35 16.34 159.42 16.33 158.45 C16.21 149.95 15.53 141.5 14.72 133.04 C14.6 131.78 14.48 130.52 14.36 129.22 C13.31 119.09 12.12 107.89 4.03 100.79 C-0.42 98.03 -5.18 95.89 -9.97 93.79 C-9.23 93.3 -8.5 92.82 -7.74 92.32 C1.14 86.22 5.46 81.28 8.03 70.79 C8.99 60.9 7.84 50.8 6.96 40.94 C6.84 39.56 6.73 38.18 6.62 36.81 C5.62 24.68 3.36 15.12 -5.97 6.79 C-20.29 -2.47 -39.67 2.08 -55.53 4.29 Z " fill="#FFFFFF" transform="translate(592.96875,667.2109375)"/>
<path d="M0 0 C2.66 -0.39 2.66 -0.39 6.08 -0.4 C7.36 -0.42 8.64 -0.43 9.96 -0.44 C11.36 -0.44 12.76 -0.44 14.17 -0.43 C15.61 -0.44 17.04 -0.44 18.48 -0.45 C21.5 -0.46 24.52 -0.46 27.54 -0.45 C31.39 -0.43 35.25 -0.45 39.1 -0.48 C42.08 -0.5 45.05 -0.5 48.02 -0.5 C49.44 -0.5 50.86 -0.5 52.28 -0.51 C66.41 -0.62 66.41 -0.62 72 4 C76.21 8.52 75.47 14.39 75.47 20.21 C75.47 20.76 75.47 20.76 75.49 23.51 C75.5 25.81 75.51 28.11 75.5 30.41 C75.5 33.92 75.54 37.43 75.59 40.94 C75.59 43.18 75.59 45.42 75.59 47.65 C75.61 48.7 75.63 49.75 75.64 50.83 C75.57 58.96 75.57 58.96 72.59 62.62 C68.32 66.54 66.96 67 61 67 C60.67 51.16 60.34 35.32 60 19 C58.02 18.67 56.04 18.34 54 18 C54 34.17 54 50.34 54 67 C52.02 67 50.04 67 48 67 C46.42 65.42 46.84 63.77 46.79 61.57 C46.78 61.1 46.78 61.1 46.73 58.72 C46.72 57.7 46.7 56.67 46.68 55.62 C46.66 54.58 46.64 53.54 46.62 52.46 C46.56 49.12 46.5 45.78 46.44 42.44 C46.39 40.18 46.35 37.92 46.31 35.66 C46.2 30.11 46.1 24.55 46 19 C44.35 19 42.7 19 41 19 C40.67 34.84 40.34 50.68 40 67 C38.02 67 36.04 67 34 67 C33.16 55.81 32.87 44.71 32.94 33.5 C32.94 31.98 32.95 30.47 32.95 28.95 C32.96 25.3 32.98 21.65 33 18 C31.02 18 29.04 18 27 18 C27 18.6 27 19.2 27.01 19.82 C27.03 26.03 27.04 32.24 27.05 38.45 C27.06 40.77 27.07 43.1 27.08 45.42 C27.09 48.75 27.09 52.07 27.1 55.4 C27.1 56.45 27.11 57.49 27.11 58.57 C27.11 59.53 27.11 60.49 27.11 61.48 C27.12 62.33 27.12 63.18 27.12 64.06 C27 66 27 66 26 67 C24.02 67 22.04 67 20 67 C19.67 51.16 19.34 35.32 19 19 C17.35 19 15.7 19 14 19 C13.67 34.84 13.34 50.68 13 67 C11.02 67 9.04 67 7 67 C6.12 50.66 5.87 34.37 6 18 C4.02 18 2.04 18 0 18 C0 34.17 0 50.34 0 67 C-2.31 67 -4.62 67 -7 67 C-7.33 51.16 -7.66 35.32 -8 19 C-9.65 19 -11.3 19 -13 19 C-13.33 34.84 -13.66 50.68 -14 67 C-15.98 67 -17.96 67 -20 67 C-21.7 60.08 -21.3 52.8 -21.35 45.72 C-21.37 43.95 -21.39 42.18 -21.43 40.41 C-21.49 37.85 -21.51 35.29 -21.52 32.72 C-21.55 31.94 -21.57 31.15 -21.59 30.35 C-21.58 26.24 -21.19 23.72 -18.59 20.45 C-16 18 -16 18 -14 18 C-13.77 17.45 -13.55 16.91 -13.31 16.35 C-11.6 13.28 -9.4 11 -7 8.44 C-4.43 5.68 -2.09 3.14 0 0 Z " fill="#FFFFFF" transform="translate(849,512)"/>
<path d="M0 0 C6.73 6.46 6.75 14.67 7.58 23.52 C7.67 24.43 7.76 25.34 7.86 26.28 C8.15 29.28 8.43 32.27 8.71 35.27 C8.79 36.22 8.88 37.16 8.97 38.13 C10.77 59.04 10.77 59.04 5.58 65.52 C-0.99 71.09 -10.09 71.81 -18.36 72.21 C-19.12 72.25 -19.89 72.3 -20.68 72.35 C-22.59 72.45 -24.5 72.49 -26.42 72.52 C-28.21 70.73 -27.86 68 -28.08 65.57 C-28.2 64.29 -28.32 63.02 -28.45 61.7 C-28.57 60.3 -28.7 58.89 -28.83 57.48 C-28.96 56.05 -29.09 54.61 -29.23 53.17 C-29.51 50.15 -29.78 47.13 -30.06 44.11 C-30.41 40.26 -30.76 36.4 -31.12 32.55 C-31.4 29.58 -31.67 26.6 -31.94 23.63 C-32.07 22.21 -32.21 20.79 -32.34 19.37 C-32.98 12.4 -33.6 5.52 -33.42 -1.48 C-7.61 -5.81 -7.61 -5.81 0 0 Z " fill="#FFFFFF" transform="translate(580.41796875,776.48046875)"/>
<path d="M0 0 C8.25 6.18 8.76 17.36 10.3 26.85 C10.62 28.83 10.96 30.82 11.3 32.8 C14.79 53.84 14.79 53.84 9.93 61.9 C2.53 70.98 -10.29 71.71 -21.07 73.9 C-23.2 70.71 -23.63 68.79 -24.3 65.06 C-24.52 63.86 -24.74 62.65 -24.97 61.42 C-25.2 60.1 -25.44 58.79 -25.67 57.48 C-25.91 56.13 -26.16 54.78 -26.4 53.43 C-26.91 50.6 -27.42 47.77 -27.92 44.94 C-28.56 41.33 -29.21 37.71 -29.87 34.1 C-30.37 31.31 -30.87 28.53 -31.37 25.74 C-31.72 23.76 -32.08 21.78 -32.44 19.81 C-32.65 18.59 -32.87 17.38 -33.09 16.14 C-33.28 15.07 -33.47 14.01 -33.66 12.92 C-34.07 9.88 -34.14 6.97 -34.07 3.9 C-9.27 -4.92 -9.27 -4.92 0 0 Z " fill="#FFFFFF" transform="translate(431.06640625,708.09765625)"/>
<path d="M0 0 C3.84 4.84 4.9 9.79 5.46 15.8 C5.5 16.18 5.5 16.18 5.69 18.07 C5.92 20.28 6.13 22.48 6.33 24.68 C6.45 25.79 6.56 26.89 6.68 28.04 C6.95 30.92 7.16 33.79 7.33 36.68 C7.36 37.19 7.36 37.19 7.53 39.8 C7.8 47.18 7.02 52.63 1.94 58.21 C-4.09 63.69 -11.24 64.15 -18.98 64.87 C-19.9 64.96 -20.82 65.06 -21.76 65.15 C-26.79 65.64 -26.79 65.64 -28.67 65.68 C-30.31 64.04 -30.03 62.05 -30.24 59.78 C-30.34 58.74 -30.44 57.69 -30.54 56.62 C-30.65 55.47 -30.75 54.33 -30.86 53.16 C-30.97 51.99 -31.08 50.81 -31.19 49.61 C-31.42 47.12 -31.65 44.63 -31.88 42.14 C-32.23 38.36 -32.58 34.57 -32.94 30.79 C-33.16 28.37 -33.39 25.95 -33.61 23.53 C-33.72 22.41 -33.82 21.29 -33.93 20.13 C-34.55 13.29 -34.8 6.55 -34.67 -0.32 C-24.52 -3.49 -8.92 -7.2 0 0 Z " fill="#FFFFFF" transform="translate(574.66796875,691.3203125)"/>
<path d="M0 0 C0.33 0 0.66 0 1 0 C3.35 14.33 5.69 28.66 8 43 C8.18 44.13 8.37 45.26 8.55 46.43 C9.68 53.39 10.79 60.34 11.9 67.3 C12.26 69.55 12.62 71.8 12.98 74.05 C13.49 77.22 13.99 80.4 14.5 83.57 C14.57 84.04 14.57 84.04 14.96 86.42 C15.1 87.3 15.23 88.18 15.38 89.09 C15.5 89.85 15.62 90.61 15.74 91.39 C16.09 94.91 16 98.46 16 102 C5.77 102 -4.46 102 -15 102 C-15 96.09 -14.91 91.27 -14.04 85.58 C-13.94 84.9 -13.83 84.21 -13.73 83.51 C-13.39 81.28 -13.05 79.05 -12.7 76.82 C-12.46 75.24 -12.22 73.66 -11.98 72.09 C-11.35 67.94 -10.71 63.79 -10.08 59.65 C-9.44 55.49 -8.81 51.34 -8.17 47.18 C-7.1 40.14 -6.02 33.11 -4.94 26.08 C-4.29 21.88 -3.65 17.68 -3.01 13.48 C-2.74 11.73 -2.47 9.99 -2.21 8.24 C-2.09 7.49 -1.98 6.73 -1.86 5.95 C-1.11 1.11 -1.11 1.11 0 0 Z " fill="#FFFFFF" transform="translate(701,696)"/>
<path d="M0 0 C5.55 3.13 9.33 7.96 11.25 14.05 C12.81 22.47 11.42 28.95 6.62 36.06 C2.45 40.98 -3.29 43.47 -9.57 44.38 C-16.77 44.76 -22.19 42.04 -28.19 38.31 C-33.12 33.24 -35.75 26.38 -35.66 19.32 C-34.91 13.36 -31.7 7.16 -27.38 3.06 C-18.8 -2.82 -9.66 -4.16 0 0 Z " fill="#FFFFFF" transform="translate(567.375,907.9375)"/>
<path d="M0 0 C5.84 5.47 8.46 10.96 9 19 C8.38 26.64 5.22 32.35 -0.56 37.35 C-6.09 41.05 -13.01 41.72 -19.46 40.56 C-26.77 38.38 -32.14 35.09 -35.94 28.38 C-38.7 22.23 -39.34 16.18 -37.27 9.7 C-34.44 3.54 -30.08 -0.96 -24 -4 C-15.82 -6.08 -6.9 -5.02 0 0 Z " fill="#FFFFFF" transform="translate(1180,940)"/>
<path d="M0 0 C4.64 4.18 6.64 8.97 7.37 15.11 C7.53 22.54 7.02 28.26 2 34 C-5.63 40.32 -12.18 41.87 -22 41 C-29.01 39.07 -33.35 34.18 -37.14 28.2 C-39.32 22.62 -38.85 15.25 -37.35 9.52 C-34.73 3.71 -30.42 -0.45 -24.64 -3.07 C-15.83 -6.11 -7.74 -5.33 0 0 Z " fill="#FFFFFF" transform="translate(504,918)"/>
<path d="M0 0 C10.38 0.22 22.6 0.83 30.47 8.42 C35.62 14.24 36.47 19.45 36.3 27 C35.75 32.42 34.08 36.09 30.06 39.79 C22.62 45.58 16.24 45.41 7 45 C2.96 44.49 -1.01 43.82 -5 43 C-4.59 32.78 -3.71 22.66 -2.5 12.5 C-2.37 11.38 -2.24 10.27 -2.1 9.12 C-1.98 8.08 -1.85 7.04 -1.72 5.97 C-1.6 5.03 -1.49 4.1 -1.37 3.14 C-1 1 -1 1 0 0 Z " fill="#FFFFFF" transform="translate(1048,918)"/>
<path d="M0 0 C0.5 0 0.5 0 3.04 0.03 C3.81 0.04 4.58 0.05 5.38 0.06 C5.66 5.22 5.95 10.38 6.23 15.54 C6.33 17.29 6.42 19.05 6.52 20.8 C6.66 23.33 6.8 25.86 6.94 28.38 C6.98 29.16 7.02 29.94 7.07 30.74 C7.52 39.03 7.52 39.03 7.38 43.06 C7.04 43.39 6.72 43.72 6.38 44.06 C3.4 44.06 0.43 44.06 -2.62 44.06 C-3.28 36.8 -3.95 29.54 -4.62 22.06 C-7.94 32.44 -7.94 32.44 -8.96 35.7 C-9.24 36.55 -9.52 37.4 -9.8 38.27 C-9.94 38.71 -9.94 38.71 -10.64 40.91 C-11.62 43.06 -11.62 43.06 -14.62 45.06 C-17.31 45.19 -17.31 45.19 -19.62 45.06 C-20.9 42.54 -22.17 40.02 -23.44 37.5 C-23.79 36.8 -24.15 36.09 -24.52 35.37 C-26.72 30.99 -28.74 26.58 -30.62 22.06 C-30.62 22.75 -30.61 23.45 -30.61 24.16 C-30.59 27.27 -30.58 30.39 -30.56 33.5 C-30.55 34.59 -30.55 35.68 -30.54 36.8 C-30.53 37.83 -30.53 38.87 -30.53 39.93 C-30.52 40.89 -30.52 41.85 -30.51 42.84 C-30.62 45.06 -30.62 45.06 -31.62 46.06 C-33.14 46.13 -34.67 46.15 -36.19 46.12 C-37.01 46.12 -37.84 46.11 -38.69 46.1 C-39.33 46.09 -39.97 46.07 -40.62 46.06 C-40.93 39.96 -41.24 33.85 -41.53 27.75 C-41.64 25.67 -41.74 23.59 -41.85 21.51 C-42 18.53 -42.14 15.55 -42.29 12.57 C-42.33 11.63 -42.38 10.7 -42.43 9.73 C-42.47 8.87 -42.51 8.01 -42.55 7.12 C-42.59 6.36 -42.63 5.6 -42.67 4.82 C-42.62 3.06 -42.62 3.06 -41.62 2.06 C-39.61 1.99 -37.58 1.98 -35.56 2 C-35.01 2 -35.01 2 -32.21 2.03 C-31.36 2.04 -30.51 2.05 -29.62 2.06 C-28.19 5.08 -26.75 8.1 -25.31 11.12 C-25.11 11.55 -25.11 11.55 -24.09 13.69 C-21.83 18.44 -19.66 23.21 -17.62 28.06 C-15.68 25.15 -14.8 22.87 -13.75 19.55 C-13.4 18.49 -13.06 17.42 -12.7 16.32 C-11.98 14.06 -11.26 11.8 -10.55 9.54 C-10.2 8.47 -9.86 7.4 -9.5 6.3 C-9.19 5.32 -8.88 4.34 -8.55 3.33 C-6.86 -0.8 -4.02 -0.05 0 0 Z " fill="#FFFFFF" transform="translate(644.625,900.9375)"/>
<path d="M0 0 C4.15 4.49 5.3 7.86 5.22 14.01 C4.73 18.43 1.58 21.56 -1 25 C-0.28 25.76 0.44 26.52 1.19 27.3 C2.13 28.3 3.06 29.31 4 30.31 C4.48 30.81 4.95 31.31 5.45 31.83 C9 35.66 9 35.66 9 39 C5.16 40.2 1.98 40.73 -2 40 C-5.12 37.16 -7.4 34.19 -9.81 30.76 C-12 28 -12 28 -16 27 C-15.67 31.95 -15.34 36.9 -15 42 C-22 44 -22 44 -25 43 C-27.3 29.04 -29.23 15.04 -31 1 C-21.85 -3.05 -8.77 -5.65 0 0 Z " fill="#FFFFFF" transform="translate(437,925)"/>
<path d="M0 0 C5.57 7.42 4.78 20.64 5.69 29.62 C5.82 30.9 5.96 32.18 6.09 33.5 C7.79 50.12 7.79 50.12 4.06 54.75 C0.15 56.72 -3.41 57.11 -7.75 57.38 C-8.91 57.45 -10.07 57.52 -11.27 57.6 C-12.15 57.65 -13.03 57.7 -13.94 57.75 C-15.31 47.14 -16.38 36.51 -17.36 25.86 C-17.49 24.38 -17.63 22.9 -17.77 21.42 C-17.97 19.3 -18.16 17.18 -18.35 15.05 C-18.46 13.82 -18.58 12.58 -18.69 11.3 C-18.94 7.77 -18.98 4.29 -18.94 0.75 C-12.56 -1.42 -6.39 -2.72 0 0 Z " fill="#000000" transform="translate(574.9375,782.25)"/>
<path d="M0 0 C3.77 3.82 4.88 7.48 5.7 12.64 C5.83 13.37 5.96 14.1 6.09 14.85 C6.36 16.39 6.61 17.93 6.87 19.46 C7.25 21.8 7.65 24.13 8.06 26.46 C8.32 27.96 8.57 29.46 8.83 30.96 C8.95 31.64 9.07 32.33 9.19 33.04 C10.09 38.64 11.02 44.5 8.83 49.86 C6.61 52.46 4.92 53.19 1.69 54.25 C0.72 54.57 -0.26 54.89 -1.26 55.22 C-4.16 56.04 -7 56.68 -10 57 C-11.64 52.46 -12.65 47.96 -13.44 43.21 C-13.56 42.48 -13.69 41.74 -13.82 40.98 C-14.22 38.63 -14.61 36.29 -15 33.94 C-15.26 32.39 -15.53 30.84 -15.79 29.29 C-17.27 20.54 -18.68 11.78 -20 3 C-6.42 -1.71 -6.42 -1.71 0 0 Z " fill="#000000" transform="translate(426,715)"/>
<path d="M0 0 C2.99 0.04 4.34 0.17 6.61 2.16 C8.26 4.4 9.69 6.68 11.08 9.09 C11.57 9.89 12.06 10.68 12.56 11.49 C13.49 13 14.4 14.51 15.3 16.03 C17.42 19.59 19.63 23.08 21.83 26.59 C22.16 18.01 22.49 9.43 22.83 0.59 C25.8 0.59 28.77 0.59 31.83 0.59 C32.83 1.59 32.83 1.59 32.95 3.35 C32.95 4.11 32.94 4.87 32.94 5.65 C32.94 6.52 32.94 7.38 32.94 8.26 C32.94 9.2 32.93 10.13 32.93 11.1 C32.92 12.05 32.92 13 32.92 13.99 C32.92 17.04 32.9 20.1 32.89 23.16 C32.89 25.22 32.88 27.29 32.88 29.36 C32.87 34.44 32.85 39.51 32.83 44.59 C29.05 45.08 25.59 45.26 21.83 44.59 C19.04 42.37 17.6 39.66 15.95 36.53 C15.08 35.02 14.21 33.51 13.34 32 C12.93 31.26 12.52 30.52 12.09 29.77 C10.21 26.54 8.05 23.59 5.83 20.59 C5.8 21.29 5.78 21.98 5.75 22.69 C5.64 25.8 5.51 28.92 5.39 32.03 C5.35 33.12 5.31 34.21 5.27 35.33 C5.23 36.36 5.19 37.4 5.14 38.46 C5.13 38.94 5.13 38.94 5.03 41.37 C4.83 43.59 4.83 43.59 3.83 44.59 C2.31 44.83 0.79 45.01 -0.73 45.16 C-1.56 45.24 -2.39 45.32 -3.24 45.41 C-3.88 45.47 -4.51 45.53 -5.17 45.59 C-5.2 39.35 -5.21 33.1 -5.23 26.85 C-5.23 24.72 -5.24 22.6 -5.25 20.47 C-5.26 17.42 -5.27 14.37 -5.27 11.32 C-5.27 10.36 -5.28 9.4 -5.29 8.42 C-5.29 7.53 -5.29 6.65 -5.29 5.75 C-5.29 4.97 -5.29 4.19 -5.29 3.38 C-5.06 -0.01 -3 0.25 0 0 Z " fill="#FFFFFF" transform="translate(718.171875,898.40625)"/>
<path d="M0 0 C2.78 1.9 4.04 3.66 5.38 6.75 C-0.01 10.79 -0.01 10.79 -2.69 10.62 C-4.62 9.75 -4.62 9.75 -6.81 8.56 C-11.07 7.33 -14.54 8.18 -18.62 9.75 C-21.64 12.03 -22.44 13.61 -23.03 17.31 C-23.29 22.01 -23.31 25.63 -20.25 29.38 C-16.36 32.9 -13.98 33.09 -8.88 33.04 C-5.51 32.61 -3.88 31.22 -1.62 28.75 C-0.97 27.43 -0.31 26.11 0.38 24.75 C-3.58 25.08 -7.55 25.41 -11.62 25.75 C-12.29 23.44 -12.94 21.13 -13.62 18.75 C-10.22 16.48 -7.13 15.87 -3.19 15.12 C-2.52 14.99 -1.85 14.86 -1.16 14.72 C2.11 14.08 5.03 13.75 8.38 13.75 C10.83 21.73 10.37 27.44 6.88 35 C2 40.36 -5.01 43.54 -12.27 43.93 C-18.18 43.47 -23.42 41.8 -27.81 37.72 C-32.64 31.84 -34.94 26.49 -34.5 18.81 C-33.63 12.24 -31.5 7.62 -26.81 2.94 C-18.75 -2.6 -9.03 -5.33 0 0 Z " fill="#FFFFFF" transform="translate(375.625,934.25)"/>
<path d="M0 0 C3.71 2.21 6.13 4.78 8.5 8.38 C7.5 11.38 7.5 11.38 5.19 12.56 C2.5 13.38 2.5 13.38 -1.5 13.38 C-2.08 12.74 -2.65 12.1 -3.25 11.44 C-6.37 8.58 -9.42 8.34 -13.5 8.38 C-16.81 8.75 -16.81 8.75 -19.5 10.38 C-22.19 14.81 -22.87 19.12 -21.94 24.19 C-20.91 27.85 -19.6 30.05 -16.5 32.38 C-13.3 33.98 -9.97 33.87 -6.5 33.38 C-3.5 31.5 -3.5 31.5 -1.5 29.38 C-1.5 28.72 -1.5 28.05 -1.5 27.38 C-4.8 27.04 -8.1 26.72 -11.5 26.38 C-11.5 23.74 -11.5 21.1 -11.5 18.38 C-8.02 18.35 -4.54 18.33 -1.06 18.31 C-0.57 18.31 -0.57 18.31 1.95 18.29 C2.42 18.29 2.42 18.29 4.81 18.28 C5.25 18.27 5.25 18.27 7.46 18.26 C9.5 18.38 9.5 18.38 10.5 19.38 C10.56 26.37 9.65 31.72 5.5 37.38 C-0.28 42.86 -5.67 43.84 -13.43 43.69 C-19.63 43.06 -23.9 40.91 -28.38 36.62 C-32.77 29.9 -34.77 23.45 -33.5 15.38 C-31.15 7.99 -27.23 3.19 -20.5 -0.62 C-14.16 -2.74 -6.14 -2.83 0 0 Z " fill="#FFFFFF" transform="translate(807.5,900.625)"/>
<path d="M0 0 C3.35 -0.18 5.57 0.04 8.53 1.65 C11.89 5.32 11.84 8.55 12.12 13.39 C12.18 14.27 12.25 15.16 12.32 16.07 C12.45 17.89 12.58 19.71 12.69 21.53 C12.86 24.04 13.07 26.55 13.31 29.05 C13.43 30.54 13.56 32.03 13.68 33.52 C13.75 34.19 13.81 34.86 13.88 35.56 C14.23 40.67 13.25 43.79 10.87 48.2 C6.45 51.15 2.35 51.25 -2.84 51.23 C-3.65 51.22 -4.45 51.22 -5.28 51.22 C-5.89 51.21 -6.5 51.21 -7.13 51.2 C-7.71 45.03 -8.27 38.85 -8.84 32.68 C-9.03 30.58 -9.23 28.48 -9.42 26.38 C-9.7 23.36 -9.98 20.34 -10.26 17.32 C-10.35 16.38 -10.43 15.44 -10.52 14.48 C-10.6 13.6 -10.68 12.72 -10.77 11.81 C-10.84 11.04 -10.91 10.27 -10.98 9.47 C-11.14 7.04 -11.22 4.65 -11.13 2.2 C-8.77 -0.16 -3.29 0.31 0 0 Z " fill="#000000" transform="translate(560.1328125,695.796875)"/>
<path d="M0 0 C1.53 0.09 3.05 0.25 4.56 0.44 C5.39 0.54 6.22 0.64 7.07 0.75 C7.7 0.83 8.34 0.91 9 1 C9.85 3.87 10.05 6.05 9.66 9.01 C9.57 9.77 9.47 10.53 9.38 11.31 C9.33 11.7 9.33 11.7 9.06 13.69 C8.44 18.42 7.91 23.12 7.75 27.89 C7.73 28.25 7.73 28.25 7.67 30.07 C8.1 32.6 8.98 33.44 11 35 C14.6 35.9 16.45 36.18 20 35 C22.24 31.73 22.46 28.37 22.85 24.48 C22.98 23.23 23.11 21.98 23.24 20.7 C23.31 20.04 23.31 20.04 23.62 16.75 C23.76 15.42 23.9 14.09 24.03 12.76 C24.36 9.51 24.68 6.25 25 3 C28.3 3.33 31.6 3.66 35 4 C36.71 9.12 35.41 14.39 34.81 19.69 C34.7 20.85 34.58 22.01 34.47 23.2 C33.58 31.15 32.47 37.78 26.38 43.44 C20.92 47.03 15.39 46.53 9 46 C4.36 44.66 0.48 41.45 -2.12 37.41 C-5.94 26.91 -2.67 11.81 -1 1 C-0.67 0.67 -0.34 0.34 0 0 Z " fill="#FFFFFF" transform="translate(986,910)"/>
<path d="M0 0 C3.27 1.9 5.1 3.72 6.5 7.31 C6.69 10.12 6.69 10.12 6.5 12.31 C3.53 12.31 0.56 12.31 -2.5 12.31 C-3.16 10.99 -3.82 9.67 -4.5 8.31 C-7.94 7.44 -7.94 7.44 -11.5 7.31 C-12.49 7.97 -13.48 8.63 -14.5 9.31 C-14.69 11.94 -14.69 11.94 -14.5 14.31 C-13.78 14.49 -13.05 14.68 -12.3 14.86 C2.44 18.7 2.44 18.7 6.5 25.31 C7.66 29.49 7.64 31.82 6.44 36 C4.12 39.97 2.68 41.37 -1.5 43.31 C-8.51 44.89 -15.11 44.85 -21.5 41.31 C-24.74 38.67 -26.32 36.05 -27.31 31.94 C-27.37 31.07 -27.44 30.21 -27.5 29.31 C-25.9 29.2 -24.29 29.13 -22.69 29.06 C-21.79 29.02 -20.9 28.97 -19.98 28.92 C-17.5 29.31 -17.5 29.31 -15.89 31.27 C-15.66 31.61 -15.66 31.61 -14.5 33.31 C-11 34.19 -11 34.19 -7.5 34.31 C-6.51 33.65 -5.52 32.99 -4.5 32.31 C-4.66 31.49 -4.66 31.49 -5.5 27.31 C-6.52 27.02 -7.55 26.73 -8.61 26.43 C-9.97 26.02 -11.33 25.6 -12.69 25.19 C-13.36 25 -14.03 24.81 -14.73 24.62 C-19.99 22.97 -22.47 20.95 -25.5 16.31 C-26.55 12.27 -26.44 8.18 -24.54 4.41 C-18.75 -3.09 -8.23 -3.76 0 0 Z " fill="#FFFFFF" transform="translate(897.5,903.6875)"/>
<path d="M0 0 C7.96 -0.3 15.77 0.23 23.69 0.94 C24.68 1.02 25.67 1.11 26.7 1.2 C27.16 1.24 27.16 1.24 29.51 1.46 C29.93 1.5 29.93 1.5 32.06 1.7 C34 2 34 2 35 3 C35.12 6.5 35.12 6.5 35 10 C34 11 34 11 31.5 11.1 C30.99 11.09 30.99 11.09 28.44 11.06 C27.43 11.05 26.41 11.04 25.37 11.04 C24.98 11.03 24.98 11.03 23 11 C22.69 13.9 22.37 16.79 22.06 19.69 C22.02 20.12 22.02 20.12 21.78 22.29 C21.13 28.4 20.66 34.49 20.34 40.63 C20 43 20 43 18 45 C15.27 44.97 12.7 44.44 10 44 C9.83 32.63 10.36 21.35 11 10 C10.29 9.94 9.58 9.88 8.85 9.82 C7.93 9.73 7.01 9.65 6.06 9.56 C5.6 9.52 5.6 9.52 3.29 9.32 C1 9 1 9 0 8 C-0.14 5.33 -0.04 2.68 0 0 Z " fill="#FFFFFF" transform="translate(927,906)"/>
<path d="M0 0 C3.4 2.98 5.18 5.53 6 9.94 C6.35 15.37 4.42 19.32 0.94 23.44 C-3.38 25.73 -7.22 25.77 -12 25 C-16.13 22.94 -18.3 21.25 -20 17 C-20.7 12.09 -20.5 8.09 -18.44 3.56 C-12.93 -2.23 -7.15 -3.15 0 0 Z " fill="#000000" transform="translate(563,917)"/>
<path d="M0 0 C4.34 2.25 7.17 4.42 9 9 C9.7 13.68 9.44 17.06 7.44 21.38 C4.45 24.59 2.21 25.79 -2 27 C-7.31 26.91 -10.25 25.75 -14 22 C-16.55 17.75 -16.55 13.84 -16 9 C-13.2 1.99 -7.35 -1.05 0 0 Z " fill="#010100" transform="translate(492,923)"/>
<path d="M0 0 C3.32 1.72 5.42 4.1 7.44 7.25 C8.4 11.94 8.36 16.64 5.92 20.88 C3.79 23.55 2.27 24.91 -1 26 C-6.24 26.4 -9.54 25.84 -14 23 C-17.02 20.19 -17.7 17.17 -18.06 13.09 C-17.96 9.47 -16.83 7.08 -15 4 C-10.47 -0.21 -5.97 -1.24 0 0 Z " fill="#000000" transform="translate(1170,945)"/>
<path d="M0 0 C1.65 -0.03 3.29 -0.05 4.94 -0.06 C5.85 -0.07 6.77 -0.09 7.71 -0.1 C10 0 10 0 11 1 C11.09 2.35 11.12 3.71 11.11 5.06 C11.11 5.92 11.11 6.78 11.11 7.67 C11.11 8.6 11.1 9.54 11.1 10.5 C11.1 11.46 11.09 12.41 11.09 13.39 C11.09 16.45 11.08 19.51 11.06 22.56 C11.06 24.63 11.05 26.7 11.05 28.76 C11.04 33.84 11.02 38.92 11 44 C7.7 44 4.4 44 1 44 C0.33 29.32 -0.16 14.69 0 0 Z " fill="#FFFFFF" transform="translate(676,900)"/>
<path d="M0 0 C1.48 0.14 2.96 0.29 4.44 0.44 C4.85 0.48 4.85 0.48 6.93 0.68 C9 1 9 1 10 2 C9.81 11.12 8.37 20.19 7 29.19 C6.82 30.4 6.64 31.61 6.46 32.86 C5.13 41.74 5.13 41.74 4 44 C0.7 43.67 -2.6 43.34 -6 43 C-4.95 33 -3.78 23.03 -2.44 13.06 C-2.31 12.11 -2.18 11.16 -2.05 10.18 C-1.99 9.73 -1.99 9.73 -1.68 7.47 C-1.58 6.68 -1.47 5.89 -1.36 5.07 C-1 3 -1 3 0 0 Z " fill="#FFFFFF" transform="translate(1111,927)"/>
<path d="M0 0 C5.77 -0.48 10.27 0.48 15 4 C17.43 7.81 17.53 11.6 17 16 C15.71 19.8 14.64 21.52 11.44 23.94 C6.75 25.39 2.78 24.78 -2 24 C-3.25 19.5 -2.76 15.43 -2.12 10.88 C-2.03 10.16 -1.94 9.44 -1.85 8.71 C-1.45 5.68 -0.97 2.91 0 0 Z " fill="#000000" transform="translate(1057,929)"/>
<path d="M0 0 C2.4 3.85 2.75 8.05 3.32 12.45 C3.43 13.26 3.55 14.08 3.66 14.91 C3.89 16.63 4.12 18.34 4.34 20.05 C4.69 22.69 5.05 25.32 5.41 27.96 C5.63 29.62 5.85 31.28 6.07 32.95 C6.18 33.74 6.29 34.53 6.4 35.35 C6.64 37.23 6.83 39.11 7 41 C6 42 6 42 3.28 42.1 C1.73 42.08 1.73 42.08 -6 42 C-5.39 33.24 -4.32 24.61 -3 15.94 C-2.82 14.73 -2.64 13.52 -2.46 12.28 C-1.13 3.4 -1.13 3.4 0 0 Z " fill="#000000" transform="translate(701,748)"/>
<path d="M0 0 C3.83 1.51 5.49 3.63 7.88 6.94 C8.25 7.45 8.63 7.97 9.01 8.5 C9.87 9.67 10.72 10.84 11.56 12.01 C14.33 15.84 17.14 19.64 19.94 23.44 C20.54 24.26 21.15 25.08 21.77 25.93 C25.94 31.6 30.2 37.2 34.51 42.76 C37.9 47.15 41.2 51.6 44.52 56.04 C48.57 61.45 52.69 66.8 56.84 72.13 C59.02 75.03 61.02 77.97 63 81 C62.67 81.66 62.34 82.32 62 83 C56.03 77.56 51.51 71.41 46.81 64.88 C44.34 61.45 41.79 58.09 39.19 54.75 C35.02 49.38 30.97 43.92 26.94 38.44 C26.64 38.03 26.64 38.03 25.11 35.95 C23.94 34.35 22.76 32.76 21.59 31.16 C17.15 25.13 12.7 19.1 8.01 13.27 C7.5 12.63 6.99 11.99 6.46 11.34 C5.47 10.1 4.46 8.86 3.45 7.63 C0 3.33 0 3.33 0 0 Z " fill="#000000" transform="translate(670,406)"/>
<path d="M0 0 C0.97 11.79 0.9 23.21 0 35 C-1.98 35 -3.96 35 -6 35 C-6.1 30.66 -6.17 26.32 -6.22 21.98 C-6.24 20.5 -6.27 19.02 -6.3 17.55 C-6.35 15.42 -6.37 13.3 -6.39 11.17 C-6.41 9.89 -6.43 8.62 -6.45 7.3 C-6 4 -6 4 -4.1 1.55 C-2 0 -2 0 0 0 Z " fill="#FFFFFF" transform="translate(821,544)"/>
<path d="M0 0 C2 3 2 3 1.88 6.06 C1 9 1 9 -0.56 10.31 C-4.03 11.29 -7.42 11.64 -11 12 C-11.66 8.37 -12.32 4.74 -13 1 C-8.27 -0.96 -4.99 -1.25 0 0 Z " fill="#000000" transform="translate(430,932)"/>
</svg>
